<svg version="1.1" id="Layer_1" xmlns="http://www.w3.org/2000/svg" xmlns:xlink="http://www.w3.org/1999/xlink" x="0px" y="0px"
	 width="100%" viewBox="0 0 2550 2396" enable-background="new 0 0 2550 2396" xml:space="preserve">
<path fill="#FFFFFF" opacity="1.000000" stroke="none" 
	d="
M1402.000000,2398.000000 
	C934.666687,2398.000000 468.333344,2398.000000 2.000000,2398.000000 
	C2.000000,1599.333374 2.000000,800.666687 2.000000,2.000000 
	C852.000000,2.000000 1702.000000,2.000000 2552.000000,2.000000 
	C2552.000000,800.666687 2552.000000,1599.333374 2552.000000,2398.000000 
	C2169.000000,2398.000000 1786.000000,2398.000000 1402.000000,2398.000000 
M1560.651733,645.899841 
	C1562.550171,645.348877 1564.439819,644.362976 1566.348755,644.323975 
	C1573.648071,644.174744 1580.958618,644.520752 1588.255371,644.323303 
	C1597.202759,644.081177 1604.458740,641.101990 1610.757446,633.807007 
	C1616.970581,626.611084 1622.712158,619.735474 1624.334473,610.129089 
	C1624.542725,608.896423 1625.174194,607.463013 1626.084595,606.663574 
	C1634.668091,599.125916 1635.759521,589.095947 1635.710449,578.622559 
	C1635.665283,568.958313 1635.057861,559.240295 1635.855957,549.642212 
	C1636.949829,536.485718 1628.739258,526.830505 1624.477905,515.695435 
	C1624.060669,514.604736 1622.693848,513.274658 1621.627930,513.136658 
	C1616.269165,512.443298 1613.745483,507.572510 1609.689331,505.406830 
	C1604.091309,502.417969 1603.409424,498.376404 1603.666870,493.121002 
	C1603.846069,489.464020 1604.399780,485.615112 1603.534302,482.166107 
	C1602.201294,476.853973 1601.100220,470.527527 1597.562622,466.930817 
	C1590.927246,460.184265 1591.192017,453.064545 1592.356323,444.375458 
	C1595.360474,444.375458 1597.967285,444.519165 1600.553345,444.347992 
	C1607.752075,443.871552 1611.893433,440.003601 1611.650146,434.159607 
	C1611.432617,428.934265 1607.183838,424.805969 1600.968994,424.368866 
	C1596.326294,424.042328 1591.631836,424.097717 1586.979004,424.339172 
	C1577.791504,424.815979 1568.490601,424.557312 1560.938232,431.626099 
	C1556.889893,435.415161 1551.987915,438.322418 1547.330078,441.414917 
	C1545.462280,442.654938 1543.258789,444.000641 1541.133545,444.137024 
	C1531.206787,444.774200 1524.332031,449.417633 1520.321167,458.525299 
	C1519.693237,459.951172 1518.491211,461.349426 1517.191040,462.213104 
	C1512.711304,465.188751 1510.853760,469.448364 1509.565918,474.516754 
	C1508.456055,478.885040 1507.013428,483.867584 1504.021362,486.910065 
	C1498.209595,492.819855 1495.636230,499.466492 1495.644287,507.411438 
	C1495.687988,550.386719 1495.772827,593.362000 1494.028076,636.319336 
	C1486.268799,635.532471 1478.135864,638.149109 1469.836426,633.787659 
	C1471.462891,632.265076 1472.576660,631.218384 1473.694824,630.176575 
	C1476.835449,627.250916 1478.464844,623.928772 1476.934204,619.519348 
	C1475.287842,614.777405 1471.637695,612.537720 1467.068970,612.444275 
	C1454.214111,612.181213 1441.001465,609.374390 1430.397705,616.534912 
	C1424.831787,614.894897 1420.472168,612.627625 1416.044312,612.485596 
	C1401.398682,612.015991 1386.726196,612.150452 1372.068726,612.375610 
	C1362.821045,612.517639 1359.866577,615.799866 1359.709229,625.372742 
	C1359.577759,633.367371 1359.491943,641.371948 1359.744751,649.360718 
	C1359.958496,656.118347 1359.477661,662.386902 1355.317627,668.269653 
	C1353.365601,671.030090 1352.519653,675.058044 1352.408325,678.550964 
	C1351.920410,693.858154 1351.989258,709.182556 1351.598877,724.494080 
	C1351.517944,727.667358 1351.423218,731.988953 1349.485840,733.771362 
	C1340.067261,742.436279 1339.573608,753.331848 1339.604736,764.926392 
	C1339.780029,830.232788 1339.677002,895.539917 1339.709106,960.846802 
	C1339.712036,966.911560 1339.157593,972.131470 1334.301270,977.147156 
	C1330.721069,980.844849 1328.175171,987.137756 1328.064087,992.336121 
	C1327.452271,1020.977661 1327.555420,1049.639893 1327.806396,1078.291504 
	C1327.886353,1087.415894 1331.550903,1090.516968 1340.551880,1091.761719 
	C1343.762817,1092.205811 1348.094604,1092.384399 1349.799438,1094.439209 
	C1355.358398,1101.139282 1362.893555,1103.073975 1370.403687,1104.676270 
	C1374.534302,1115.828979 1375.096680,1116.233765 1386.332275,1116.322144 
	C1389.330933,1116.345703 1392.332642,1116.241821 1395.328125,1116.340454 
	C1406.424561,1116.705322 1417.083618,1115.527954 1427.340942,1110.484375 
	C1431.617432,1108.381592 1437.022949,1107.855347 1441.917236,1107.847168 
	C1469.895386,1107.800903 1497.873901,1108.182861 1525.852905,1108.284790 
	C1532.494995,1108.308960 1538.889648,1108.001099 1544.570557,1112.805542 
	C1546.858154,1114.739990 1550.673218,1115.290283 1553.880859,1115.621582 
	C1559.496582,1116.201538 1565.179932,1116.297607 1570.835083,1116.299805 
	C1661.465088,1116.336182 1752.095093,1116.325806 1842.725098,1116.325806 
	C1886.707275,1116.325684 1930.689453,1116.293091 1974.671631,1116.352417 
	C1983.131836,1116.363892 1991.065796,1114.996338 1998.609863,1110.740601 
	C2001.924316,1108.870972 2006.130493,1108.291870 2010.017456,1107.790771 
	C2017.173340,1106.868530 2023.706299,1104.364136 2028.482300,1099.135132 
	C2035.821289,1091.100098 2042.651611,1082.576172 2049.319824,1073.966919 
	C2051.465088,1071.197144 2052.473877,1067.527832 2053.901367,1064.226318 
	C2055.338135,1060.903320 2055.754150,1056.529053 2058.177490,1054.353149 
	C2066.544189,1046.841064 2067.204346,1037.140869 2067.810547,1027.087158 
	C2067.998291,1023.970886 2068.482666,1019.866394 2070.491211,1018.041443 
	C2078.824463,1010.469788 2079.658691,1000.739807 2079.662598,990.667053 
	C2079.703369,883.377136 2079.697266,776.087280 2079.650146,668.797363 
	C2079.648682,665.508850 2079.429932,662.134521 2078.680420,658.948853 
	C2076.687012,650.473877 2074.276123,648.435120 2065.584717,648.356934 
	C2047.593506,648.195068 2029.598389,648.181580 2011.607788,648.373962 
	C2004.539551,648.449524 1997.119751,649.547119 1992.321411,654.993469 
	C1988.161255,659.715454 1983.573853,660.339111 1978.116821,660.327332 
	C1956.125977,660.280029 1934.134766,660.331726 1911.747192,658.579102 
	C1912.397827,653.121948 1909.432495,646.802551 1914.083740,642.341064 
	C1922.272583,634.486328 1924.263794,624.813416 1923.639526,614.208130 
	C1923.384277,609.871338 1924.781128,606.811951 1927.941406,603.798889 
	C1930.438599,601.418091 1932.818726,598.131836 1933.574097,594.860474 
	C1935.502930,586.505676 1936.616943,578.003723 1943.008179,571.469482 
	C1943.891724,570.566040 1944.282959,569.147034 1944.798340,567.923035 
	C1947.532593,561.429565 1948.535278,554.147400 1956.227051,550.424438 
	C1958.902344,549.129639 1960.597168,544.602661 1961.536133,541.218018 
	C1962.849731,536.482849 1963.300049,531.452393 1963.623047,526.515808 
	C1963.886597,522.487183 1963.443359,518.536865 1967.792114,516.089905 
	C1969.074341,515.368347 1969.897583,513.613831 1970.637817,512.181091 
	C1975.575317,502.624725 1978.936157,492.408386 1984.692505,483.078857 
	C1987.989502,477.735046 1986.773315,469.641815 1987.739868,462.807770 
	C1988.138916,459.986694 1987.972290,456.034119 1989.708252,454.629547 
	C1998.863525,447.221893 1999.910645,437.204163 1999.602905,426.753418 
	C1999.462158,421.976074 2001.581299,418.806000 2004.335938,415.305115 
	C2006.872925,412.081146 2009.311035,408.183441 2010.038208,404.257538 
	C2011.476562,396.490997 2011.704102,388.500122 2012.440552,380.512634 
	C2023.140991,376.240173 2024.007568,374.893799 2023.699341,362.810455 
	C2023.467041,353.703339 2021.287354,350.986481 2012.643188,349.030090 
	C2005.532959,347.420868 1998.759033,349.962494 1996.184326,356.490723 
	C1993.915771,362.243011 1992.511108,368.496155 1991.787720,374.652954 
	C1991.053955,380.898468 1992.005493,387.329742 1991.466675,393.615173 
	C1991.173706,397.031647 1990.265869,401.318146 1987.989014,403.471771 
	C1980.689575,410.376648 1979.360474,418.946899 1979.743286,428.042755 
	C1979.971924,433.476074 1978.576050,437.984161 1974.644897,441.471405 
	C1969.203857,446.298157 1967.508545,452.372742 1967.606323,459.306366 
	C1967.672119,463.968475 1969.366455,469.899597 1967.166260,473.056580 
	C1960.864502,482.098419 1958.751221,493.245819 1952.706909,501.776947 
	C1946.986084,509.851379 1943.110229,517.322510 1943.591064,527.099243 
	C1943.805420,531.456543 1943.711426,535.851501 1938.967896,538.233215 
	C1932.400146,541.530884 1930.045776,547.625916 1928.271606,554.170837 
	C1927.586670,556.697937 1927.264526,560.029053 1925.520264,561.439026 
	C1918.607544,567.027039 1918.145386,575.182373 1915.870239,582.690247 
	C1914.936646,585.771484 1914.151978,589.473206 1911.992920,591.502808 
	C1904.749756,598.311768 1903.017822,606.561584 1903.530762,615.936279 
	C1903.713623,619.277771 1902.833862,622.677429 1902.439087,626.050537 
	C1901.783325,626.023132 1901.127441,625.995789 1900.471680,625.968445 
	C1900.218262,623.776123 1899.762207,621.585266 1899.745850,619.391174 
	C1899.666138,608.728210 1899.960938,598.056152 1899.616211,587.403687 
	C1899.358887,579.448059 1898.837158,571.229980 1892.784912,565.108765 
	C1888.369263,560.642883 1887.604126,555.423401 1887.660645,549.596375 
	C1887.793457,535.935059 1887.655640,522.271362 1887.720703,508.609070 
	C1887.758911,500.592743 1885.060303,493.343292 1879.539062,487.965302 
	C1876.110229,484.625366 1875.685913,481.389709 1875.690308,477.363251 
	C1875.716431,453.370392 1875.702393,429.377533 1875.699463,405.384674 
	C1875.699219,403.052063 1875.905762,400.692230 1875.626709,398.392303 
	C1874.953735,392.847321 1870.991699,388.761993 1866.195068,388.353210 
	C1861.973999,387.993530 1857.879883,391.305664 1855.800293,396.066681 
	C1854.408203,399.253540 1852.227539,402.086121 1850.601685,405.183350 
	C1848.783813,408.646606 1846.955566,412.138580 1845.565186,415.783417 
	C1843.786377,420.446808 1842.284180,424.810883 1837.487793,427.789856 
	C1833.056030,430.542389 1829.799927,434.708160 1829.079468,440.643219 
	C1828.662964,444.074127 1826.877075,447.759125 1824.663208,450.480133 
	C1813.997192,463.588776 1807.071167,478.322845 1803.842163,494.882751 
	C1803.348755,497.413177 1802.845093,500.547821 1801.154419,502.127686 
	C1795.507080,507.404755 1793.041748,513.949829 1791.673584,521.233826 
	C1791.379639,522.798950 1790.677490,524.747070 1789.498291,525.609253 
	C1783.310181,530.134155 1782.561401,537.439331 1779.775757,543.699524 
	C1778.859253,545.759583 1778.401855,548.309021 1776.896240,549.771790 
	C1770.794189,555.700317 1768.720337,563.135193 1767.611816,571.190796 
	C1767.168213,574.413696 1766.510498,578.059875 1764.654907,580.546997 
	C1759.875366,586.953125 1760.013306,594.291870 1759.715698,601.503418 
	C1759.344849,610.485474 1759.506836,619.496338 1759.657104,628.491089 
	C1759.788086,636.340149 1762.750244,639.960571 1768.859497,640.324280 
	C1775.235718,640.703918 1779.377563,636.544678 1779.632935,628.893738 
	C1779.888550,621.237732 1779.704102,613.566772 1779.704102,605.902405 
	C1779.704102,599.226868 1779.900757,592.736877 1784.479614,587.057617 
	C1785.953003,585.230042 1785.813721,582.090271 1786.376221,579.542847 
	C1787.364014,575.070435 1786.824585,568.512573 1789.587280,566.520447 
	C1796.793945,561.323730 1797.619507,553.930847 1799.795898,546.729919 
	C1800.359619,544.864319 1801.535767,543.178284 1802.470947,541.431396 
	C1805.554565,535.671509 1808.663208,529.925049 1811.748291,524.165955 
	C1813.261108,521.341858 1814.162354,517.882324 1816.370972,515.807678 
	C1820.039429,512.362305 1821.680176,508.409515 1822.364990,503.651794 
	C1823.989258,492.368469 1827.077026,481.491180 1833.860718,472.177704 
	C1840.081543,463.636993 1846.667236,455.454773 1849.029663,444.743530 
	C1849.289185,443.567047 1852.461182,443.032928 1855.623535,441.588257 
	C1855.623535,455.418488 1855.795898,467.693878 1855.561157,479.961517 
	C1855.412842,487.712036 1857.541260,494.714172 1863.056763,499.864075 
	C1867.023071,503.567413 1867.706909,507.507812 1867.664429,512.322205 
	C1867.549561,525.317322 1867.573730,538.314392 1867.643188,551.310120 
	C1867.692139,560.494324 1869.803223,568.922729 1875.777832,576.355591 
	C1877.892578,578.986389 1879.424194,582.913513 1879.450928,586.263000 
	C1879.647583,610.911926 1879.395386,635.564453 1877.249512,660.273743 
	C1799.661987,660.285889 1722.074463,660.301270 1644.486938,660.296143 
	C1641.828735,660.295959 1639.118774,660.370239 1636.528198,659.892639 
	C1634.340698,659.489380 1631.622803,658.924377 1630.291504,657.415039 
	C1622.628906,648.728271 1612.389038,647.890442 1602.007812,647.782104 
	C1591.032837,647.667480 1580.052124,648.219849 1569.073975,648.214600 
	C1565.855103,648.213013 1562.636597,647.303589 1560.651733,645.899841 
M999.598816,1476.320312 
	C996.672058,1475.223755 992.328735,1474.988647 991.051941,1472.888916 
	C983.626465,1460.677124 971.693115,1459.905640 959.634888,1459.781738 
	C944.321411,1459.624146 929.001282,1460.116089 913.683960,1460.320190 
	C907.915466,1460.396973 902.945374,1459.741821 898.902466,1454.247437 
	C896.656250,1451.194580 891.704468,1449.352173 887.665283,1448.589600 
	C882.184387,1447.554932 876.409241,1447.945557 870.760803,1447.959351 
	C858.771790,1447.988647 846.778381,1448.389038 834.797424,1448.135620 
	C831.755432,1448.071167 827.925781,1446.949951 825.880066,1444.897217 
	C818.125916,1437.116333 808.607178,1435.550659 798.404480,1435.705200 
	C791.085938,1435.816040 783.770203,1436.289551 776.453064,1436.294678 
	C708.798340,1436.342041 641.143677,1436.322632 573.488953,1436.322388 
	C564.823853,1436.322388 556.148010,1436.565674 547.499329,1436.188721 
	C544.442932,1436.055542 540.591736,1435.279785 538.582214,1433.297974 
	C530.250305,1425.080811 520.299683,1423.526855 509.244690,1423.952515 
	C496.939880,1424.426147 484.602814,1424.017212 472.280609,1424.105469 
	C467.361206,1424.140747 463.527832,1422.280884 459.750153,1419.118652 
	C456.862823,1416.701416 453.016113,1414.283203 449.443878,1414.032349 
	C434.880402,1413.009033 420.259308,1412.787964 405.657288,1412.342163 
	C401.452087,1412.213623 397.239624,1412.322510 392.353333,1412.322510 
	C392.353333,1405.765869 392.545868,1400.482178 392.304718,1395.218140 
	C392.001617,1388.601074 388.375366,1384.646240 382.854095,1384.380249 
	C377.680542,1384.130737 373.398102,1388.162231 372.400208,1394.415527 
	C372.003387,1396.902100 371.934052,1399.440918 371.729187,1401.799683 
	C362.773712,1401.162842 354.556824,1400.144775 346.332397,1400.079834 
	C326.344635,1399.922241 306.353302,1400.260254 286.363586,1400.240479 
	C284.110962,1400.238281 281.859344,1399.222290 277.713623,1398.217529 
	C280.918182,1396.053223 282.407074,1395.321655 283.549255,1394.228027 
	C288.021210,1389.946411 288.690186,1386.518311 286.170502,1381.886963 
	C283.801025,1377.531494 279.915039,1375.529053 274.441986,1377.122559 
	C270.107452,1378.384521 265.486176,1380.144043 262.171112,1383.034668 
	C258.370575,1386.348511 254.865356,1388.223755 249.760086,1387.890503 
	C246.545441,1387.680542 243.119034,1388.382690 240.013275,1389.379028 
	C235.271500,1390.900146 233.351868,1394.725952 233.793228,1399.546265 
	C234.244781,1404.477661 237.170883,1407.578735 242.029663,1408.149902 
	C245.977371,1408.614014 250.089386,1407.849731 253.992142,1408.477905 
	C257.758636,1409.083862 262.238434,1409.802734 264.843140,1412.181885 
	C271.195892,1417.984253 278.421722,1420.319824 286.640015,1420.310669 
	C306.963196,1420.288086 327.286835,1419.986694 347.609070,1420.073486 
	C356.093323,1420.109619 364.861267,1419.653809 372.325623,1425.560303 
	C372.325623,1427.844116 372.325592,1429.828857 372.325592,1431.813599 
	C372.325470,1513.465820 372.325348,1595.118042 372.325195,1676.770264 
	C372.325165,1677.770142 372.584259,1678.859375 372.275970,1679.752930 
	C371.352600,1682.430176 370.879761,1685.706543 369.032562,1687.544556 
	C360.903351,1695.633789 359.772095,1705.676636 360.509399,1716.166016 
	C360.699127,1718.865112 362.168457,1722.472046 364.247101,1723.831299 
	C368.480774,1726.600098 368.358673,1730.227661 368.338745,1734.258911 
	C368.291016,1743.923584 367.986206,1753.604004 368.424316,1763.249023 
	C368.813049,1771.807861 368.724579,1781.065918 375.595551,1787.368530 
	C379.620270,1791.060303 380.414368,1794.832520 380.369202,1799.658691 
	C380.244415,1812.988525 380.211578,1826.321655 380.370911,1839.650757 
	C380.468140,1847.785522 382.170807,1850.414185 389.030518,1852.212769 
	C398.113190,1854.593994 402.603668,1860.243164 404.520691,1869.357544 
	C405.845215,1875.654907 408.965546,1881.622192 411.661377,1887.565430 
	C413.238556,1891.042480 415.709564,1894.102295 417.507843,1897.493408 
	C420.107300,1902.394897 422.406342,1907.454956 424.949615,1912.387451 
	C425.855438,1914.144165 427.707397,1915.597656 428.091034,1917.409180 
	C430.501862,1928.792236 437.240784,1936.192017 446.593689,1943.173950 
	C454.978851,1949.433472 463.120514,1952.092651 473.063873,1952.105591 
	C476.432922,1952.109985 480.915070,1952.864502 482.963226,1955.066772 
	C489.744171,1962.357788 498.125580,1964.242798 507.335999,1964.307739 
	C521.666138,1964.408936 535.998840,1964.450806 550.327271,1964.266479 
	C554.351807,1964.214722 557.663269,1965.019775 559.577332,1968.699829 
	C564.590759,1978.338379 573.245483,1980.401978 583.041077,1980.349243 
	C592.372437,1980.299072 601.710693,1980.157471 611.032166,1980.467285 
	C613.767090,1980.558350 617.383484,1981.226807 619.002808,1983.047363 
	C625.637634,1990.507568 634.172302,1992.218140 643.357361,1992.305054 
	C657.686890,1992.440674 672.020081,1992.234375 686.348022,1992.437134 
	C689.138916,1992.476562 692.962219,1992.798706 694.514587,1994.566528 
	C701.616943,2002.654663 710.752991,2004.335327 720.666626,2004.336060 
	C787.654785,2004.341797 854.642944,2004.363647 921.630920,2004.266968 
	C925.202209,2004.261841 928.961121,2003.769165 932.309082,2002.586914 
	C945.174072,1998.044556 957.932068,1994.514404 971.992554,1996.120483 
	C984.487732,1997.548096 994.680786,1992.508545 1000.612854,1980.324219 
	C1017.092712,1981.994629 1022.363586,1966.473511 1033.132080,1959.242554 
	C1033.371338,1959.081909 1033.454224,1958.668335 1033.579468,1958.360352 
	C1037.431396,1948.886719 1037.748291,1938.830811 1032.486450,1930.489136 
	C1028.914551,1924.826904 1028.136597,1919.610596 1028.406494,1913.722656 
	C1028.775146,1905.681274 1027.024048,1898.149536 1021.375793,1892.577393 
	C1017.319580,1888.576294 1016.295410,1884.372925 1016.312012,1879.222046 
	C1016.373230,1860.225708 1016.304321,1841.228760 1016.374084,1822.232422 
	C1016.383728,1819.604736 1016.239136,1816.676270 1017.285156,1814.401611 
	C1023.876831,1800.067383 1024.732666,1784.916992 1024.344849,1769.525391 
	C1024.162476,1762.286499 1023.110962,1754.829956 1030.613892,1749.869995 
	C1032.062378,1748.912476 1032.671509,1746.491577 1033.374634,1744.634766 
	C1036.174927,1737.239136 1038.655273,1729.820435 1044.161865,1723.664795 
	C1046.402222,1721.160156 1046.681885,1716.948364 1048.032349,1713.584839 
	C1048.998413,1711.178711 1049.651611,1707.697754 1051.496582,1706.754883 
	C1060.456177,1702.175781 1061.693726,1693.499512 1064.083496,1685.295898 
	C1064.809326,1682.804199 1065.280396,1679.789429 1066.960571,1678.101929 
	C1074.343506,1670.686768 1076.675415,1661.661133 1076.293091,1651.670776 
	C1076.131226,1647.445068 1077.545532,1644.253052 1080.057617,1640.814209 
	C1083.327393,1636.338501 1086.333130,1631.262451 1087.794678,1625.985596 
	C1089.306396,1620.527466 1092.330566,1616.698975 1095.948486,1612.779907 
	C1101.279419,1607.005005 1106.996460,1601.365845 1111.146362,1594.784424 
	C1115.166748,1588.408447 1117.559814,1580.973145 1120.407837,1573.898682 
	C1125.154907,1562.107056 1125.351807,1550.098999 1122.668945,1537.683594 
	C1121.357056,1531.611938 1118.129883,1527.255127 1112.799072,1526.484619 
	C1102.769287,1525.035034 1097.624023,1517.461426 1091.842896,1511.151489 
	C1087.063232,1505.934937 1082.380737,1502.446167 1075.302124,1501.350342 
	C1070.581665,1500.619873 1065.352051,1499.069580 1061.754150,1496.153931 
	C1056.325806,1491.754761 1050.530273,1489.476807 1043.895264,1488.119751 
	C1039.072144,1487.133179 1034.038818,1485.886475 1029.822754,1483.485474 
	C1020.884399,1478.395752 1011.615295,1475.596313 999.598816,1476.320312 
M1416.026245,1488.836548 
	C1411.609009,1487.589355 1407.512451,1489.028564 1405.711914,1492.752686 
	C1400.878296,1502.750000 1394.293945,1512.233276 1395.944458,1524.467163 
	C1396.374146,1527.652100 1395.085571,1532.140015 1392.902832,1534.413696 
	C1385.092407,1542.549805 1382.526245,1551.770142 1384.087036,1562.731079 
	C1384.670898,1566.831055 1385.279541,1571.453003 1380.972656,1574.567383 
	C1373.458374,1580.001221 1371.657227,1587.895020 1371.664307,1596.542969 
	C1371.672485,1606.542480 1371.837769,1616.547119 1371.540649,1626.537964 
	C1371.460083,1629.246216 1370.744995,1632.725098 1368.965088,1634.455322 
	C1361.644287,1641.571655 1359.872681,1650.471313 1359.708008,1659.958374 
	C1359.517212,1670.954468 1359.957520,1681.968628 1359.501221,1692.948975 
	C1359.348145,1696.630981 1358.327148,1701.280396 1355.910278,1703.687622 
	C1346.479248,1713.081299 1343.426025,1724.341553 1343.619873,1737.129517 
	C1343.821899,1750.458984 1343.849121,1763.798340 1343.533936,1777.123535 
	C1343.452515,1780.560669 1342.877808,1785.143921 1340.668091,1787.159912 
	C1333.515869,1793.684082 1331.941650,1802.005249 1331.784668,1810.672119 
	C1331.434570,1829.998047 1331.574097,1849.335693 1331.734375,1868.666626 
	C1331.793457,1875.788940 1333.340454,1882.876587 1338.881348,1887.715820 
	C1343.808472,1892.019165 1344.385986,1897.135254 1344.295044,1902.897949 
	C1344.042725,1918.882202 1343.737061,1934.867676 1343.716919,1950.852905 
	C1343.705444,1959.984497 1346.954468,1963.303833 1356.194458,1964.193481 
	C1359.499390,1964.511597 1362.854736,1964.328857 1366.187134,1964.331665 
	C1378.794556,1964.342773 1391.401978,1964.336304 1403.846924,1964.336304 
	C1407.822388,1970.421387 1410.524292,1977.014160 1417.818848,1978.552734 
	C1422.322388,1979.502563 1426.968018,1980.231079 1431.554688,1980.259399 
	C1457.552368,1980.418823 1483.551636,1980.282471 1509.549683,1980.415649 
	C1512.350586,1980.430054 1516.187622,1980.574219 1517.769775,1982.292114 
	C1526.108887,1991.346802 1536.798706,1992.353149 1547.964722,1992.353638 
	C1579.963013,1992.354980 1611.961426,1992.355103 1643.959717,1992.353882 
	C1683.291016,1992.352417 1722.622437,1992.275513 1761.953247,1992.403687 
	C1770.659302,1992.432129 1778.600586,1991.071777 1784.105103,1983.592896 
	C1786.907349,1979.785400 1790.775513,1979.658325 1794.812134,1979.713379 
	C1808.798218,1979.904175 1822.783569,1980.247437 1836.770020,1980.309082 
	C1859.768311,1980.410522 1882.767456,1980.348633 1905.766235,1980.332520 
	C1916.213257,1980.325195 1926.109863,1979.425415 1933.890625,1970.674683 
	C1935.991089,1968.312256 1941.081421,1967.823608 1944.802002,1967.815918 
	C1966.119263,1967.771606 1987.436768,1968.256592 2008.755005,1968.325317 
	C2041.752930,1968.431885 2074.751709,1968.402222 2107.749756,1968.316895 
	C2120.221191,1968.284668 2126.515381,1960.326172 2121.933838,1948.791504 
	C2119.073486,1941.590576 2114.239502,1934.729004 2108.824219,1929.135498 
	C2104.855469,1925.036255 2103.583008,1921.239868 2103.606934,1916.020874 
	C2103.725830,1890.022705 2103.604004,1864.023682 2103.696533,1838.025391 
	C2103.726318,1829.729492 2101.928223,1821.890991 2095.901367,1816.190186 
	C2092.197266,1812.686401 2091.628906,1809.094727 2091.642334,1804.668457 
	C2091.702637,1784.669800 2091.668457,1764.670654 2091.667969,1744.671753 
	C2091.667236,1713.673462 2091.652832,1682.675049 2091.674561,1651.676758 
	C2091.680420,1643.520142 2090.754883,1635.056763 2084.983643,1629.355957 
	C2080.538818,1624.965088 2079.612549,1620.670410 2079.639404,1615.238159 
	C2079.705566,1601.905884 2079.998535,1588.561646 2079.550049,1575.244141 
	C2079.210449,1565.165405 2076.340820,1556.777466 2067.625488,1549.356812 
	C2060.899658,1543.630371 2054.717285,1537.095215 2047.557251,1531.543701 
	C2042.660522,1527.747070 2038.211426,1524.307983 2031.826416,1524.315186 
	C2021.188721,1524.327148 2010.546387,1524.133789 1999.915527,1524.405273 
	C1994.944458,1524.532104 1990.840332,1523.430298 1987.480103,1519.651123 
	C1983.060181,1514.680420 1977.522827,1512.149536 1970.782593,1512.241943 
	C1962.812988,1512.351318 1954.841553,1512.333740 1946.870850,1512.334229 
	C1858.875488,1512.339478 1770.880005,1512.258667 1682.885010,1512.462769 
	C1674.337158,1512.482544 1665.766724,1514.060791 1657.254150,1515.253784 
	C1646.458618,1516.766602 1635.721069,1520.031982 1624.942017,1520.105225 
	C1557.948730,1520.561035 1490.950684,1520.341187 1423.954224,1520.309448 
	C1421.445312,1520.308228 1418.936646,1519.936890 1415.018311,1519.626343 
	C1417.206055,1515.497681 1418.833862,1512.384888 1420.498169,1509.291626 
	C1425.434692,1500.117920 1424.728394,1495.588379 1416.026245,1488.836548 
M815.175903,640.058044 
	C807.797058,643.577759 800.023254,644.413513 791.886475,644.404114 
	C687.263489,644.282959 582.640198,644.322998 478.016998,644.322266 
	C476.017822,644.322266 473.997314,644.136963 472.023407,644.361023 
	C465.474335,645.104614 459.465302,647.546387 456.560760,653.655701 
	C453.719208,659.632385 449.348450,660.465088 443.604095,660.397644 
	C425.947205,660.190186 408.286316,660.321838 390.626984,660.322205 
	C374.998047,660.322571 359.368958,660.358887 343.740204,660.303589 
	C338.854584,660.286316 334.520935,661.058533 331.845093,665.838684 
	C329.076416,670.784607 330.921875,674.497925 334.189087,678.427917 
	C335.673767,680.213806 336.242462,683.065369 336.483185,685.506775 
	C336.807220,688.793579 336.338226,692.151184 336.337860,695.478394 
	C336.325012,817.094543 336.326965,938.710632 336.327454,1060.326782 
	C336.327484,1062.659180 336.335632,1064.991455 336.337494,1067.323853 
	C336.341614,1072.546753 338.854279,1076.420166 343.527435,1078.268188 
	C346.800568,1079.562500 350.527313,1080.234497 354.059113,1080.263916 
	C375.382111,1080.441406 396.707764,1080.289185 418.031281,1080.431519 
	C420.864899,1080.450317 425.044189,1080.528931 426.300049,1082.254150 
	C433.979736,1092.804199 445.000732,1092.324341 456.005981,1092.333496 
	C471.999329,1092.346924 487.995544,1092.174316 503.983917,1092.456421 
	C507.811493,1092.523926 512.923401,1092.813599 515.188110,1095.169922 
	C522.920654,1103.215210 532.175720,1104.827393 542.418884,1103.964600 
	C546.388123,1103.630249 549.638855,1104.497925 552.137146,1107.691772 
	C557.294739,1114.285645 564.325317,1116.451294 572.375183,1116.353271 
	C579.038086,1116.272217 585.714539,1116.114136 592.360413,1116.460693 
	C594.713562,1116.583374 597.723938,1117.450928 599.174072,1119.091919 
	C603.890564,1124.429321 609.697693,1126.812988 616.542297,1127.736206 
	C621.751831,1128.438843 626.662231,1129.578979 630.473694,1134.233276 
	C632.591736,1136.819702 636.690918,1139.167847 639.936218,1139.220581 
	C659.824158,1139.543945 679.723267,1139.186890 699.618347,1139.012329 
	C700.230225,1139.006958 700.819153,1138.350708 701.450317,1138.279907 
	C709.674744,1137.359131 716.328857,1131.506958 725.221741,1131.875732 
	C743.167725,1132.620117 761.163025,1132.085938 779.131714,1132.416992 
	C786.910461,1132.560425 793.890747,1130.381714 799.221924,1125.150635 
	C804.339233,1120.129395 809.992676,1119.343994 816.452637,1119.842773 
	C820.097107,1120.124268 823.758057,1120.328125 827.411804,1120.330688 
	C872.726318,1120.363037 918.040771,1120.352539 963.355286,1120.350952 
	C965.687500,1120.350952 968.035217,1120.501831 970.349121,1120.291138 
	C977.342102,1119.653931 981.102783,1115.901855 980.144958,1109.199463 
	C979.362549,1103.724243 977.129150,1098.453735 975.508545,1093.101685 
	C974.483398,1089.715820 972.539490,1086.359619 972.488831,1082.968018 
	C972.195251,1063.313721 972.296204,1043.652832 972.403625,1023.994934 
	C972.415588,1021.810608 972.637207,1019.060425 973.915466,1017.547363 
	C979.765808,1010.622070 980.296082,1002.366028 980.304504,994.042175 
	C980.375244,924.071350 980.446106,854.099976 980.149292,784.130249 
	C980.123413,778.050964 978.542786,771.407715 975.704712,766.081360 
	C973.183411,761.349854 972.308228,756.961243 972.315430,751.932495 
	C972.360535,720.279114 971.919739,688.617493 972.523621,656.975525 
	C972.804626,642.250793 967.552490,635.753723 952.229980,636.068909 
	C914.594910,636.843018 876.931702,636.153809 839.283264,636.464233 
	C831.761841,636.526184 824.255554,638.414978 815.175903,640.058044 
M1286.227783,381.162231 
	C1279.839233,388.134430 1273.883545,395.573639 1266.970703,401.980164 
	C1253.236572,414.708557 1238.940063,426.828613 1224.948975,439.282196 
	C1219.318359,444.294067 1213.580811,449.241791 1208.439575,454.731598 
	C1203.499512,460.006744 1199.394531,466.053467 1194.688965,471.561584 
	C1189.809814,477.273010 1185.108643,483.273834 1179.472046,488.158661 
	C1174.741089,492.258606 1171.295166,496.429657 1169.988525,502.677429 
	C1169.124878,506.806641 1167.868042,511.402008 1165.257080,514.498230 
	C1160.459351,520.187439 1154.630981,525.034363 1149.051514,530.030762 
	C1141.948242,536.391724 1134.632446,542.514648 1127.472534,548.813110 
	C1122.929321,552.809692 1118.503052,556.939270 1113.423340,561.555359 
	C1112.304810,556.198975 1111.637695,551.675598 1110.359497,547.332092 
	C1109.446045,544.227661 1108.448486,540.523987 1106.201782,538.558044 
	C1100.483521,533.554321 1099.766602,527.499084 1100.341553,520.660156 
	C1100.921021,513.766357 1099.747559,506.375641 1094.769531,502.122833 
	C1088.362061,496.648834 1088.276611,490.455963 1088.334839,483.391754 
	C1088.474976,466.401520 1088.483398,449.408508 1088.346802,432.418213 
	C1088.246948,419.991180 1080.791260,412.440796 1068.678833,412.320038 
	C1057.685547,412.210419 1046.688232,412.170990 1035.696289,412.337952 
	C1024.383789,412.509735 1017.178528,419.407715 1016.334717,430.604553 
	C1016.159912,432.923676 1016.304565,435.266937 1016.304565,437.599091 
	C1016.304260,481.576843 1016.296143,525.554565 1016.315552,569.532349 
	C1016.317749,574.458252 1015.984436,578.724487 1012.523499,583.228027 
	C1009.592651,587.041931 1008.786072,593.073059 1008.524780,598.198669 
	C1008.229065,603.997925 1012.344849,607.819763 1017.427185,608.352600 
	C1022.599670,608.894897 1026.385498,606.039856 1028.269409,600.230042 
	C1028.858032,598.414856 1029.006958,595.850403 1030.283203,594.967773 
	C1036.478271,590.683044 1036.437134,584.548828 1036.423706,578.064575 
	C1036.331787,533.420715 1036.375244,488.776550 1036.375122,444.132477 
	C1036.375122,440.561646 1036.375122,436.990784 1036.375122,432.939087 
	C1047.528931,432.939087 1057.586914,432.939087 1068.297241,432.939087 
	C1068.297241,436.796143 1068.297119,440.092987 1068.297119,443.389832 
	C1068.297119,458.715424 1068.143188,474.043213 1068.364380,489.365601 
	C1068.469482,496.640320 1068.385742,504.806580 1074.090942,509.830322 
	C1079.913696,514.957642 1080.232422,520.591553 1080.523682,527.353882 
	C1080.771973,533.119446 1081.113525,540.697937 1084.654907,544.118896 
	C1091.592407,550.820312 1092.724976,558.065857 1092.340942,566.608337 
	C1092.101685,571.928162 1092.264526,577.267883 1092.304932,582.598206 
	C1092.405640,595.842896 1097.862427,602.116333 1110.785645,603.904907 
	C1120.447388,605.242065 1124.046143,601.883911 1124.193481,591.945496 
	C1124.255981,587.725708 1123.860229,582.810425 1125.818604,579.468811 
	C1128.758545,574.452271 1133.244873,570.154053 1137.683472,566.242249 
	C1147.321899,557.747925 1157.475464,549.840210 1167.177002,541.414612 
	C1177.163574,532.741333 1186.942627,523.847229 1189.155396,509.649719 
	C1189.467529,507.647461 1191.156006,505.703857 1192.582397,504.058136 
	C1198.828613,496.851288 1205.267090,489.811188 1211.527832,482.616638 
	C1215.630737,477.901825 1218.875610,472.169403 1223.682739,468.391937 
	C1235.622681,459.009552 1244.992065,447.000488 1257.503052,438.009521 
	C1269.132568,429.652100 1278.234131,417.804535 1288.600830,407.648712 
	C1292.668945,403.663239 1297.150269,400.099396 1303.098145,394.895721 
	C1303.332397,400.491180 1303.601074,403.981445 1303.605347,407.472046 
	C1303.640259,435.457825 1303.592407,463.443756 1303.654541,491.429474 
	C1303.666382,496.743652 1304.455933,502.079224 1304.163940,507.365051 
	C1303.802124,513.919189 1306.460693,519.352844 1310.633301,523.542542 
	C1315.974854,528.906006 1316.460815,534.950378 1316.154297,541.769958 
	C1315.736328,551.076355 1315.553833,560.407471 1315.707031,569.720764 
	C1315.819946,576.586060 1319.288696,580.137512 1325.078125,580.362671 
	C1331.068604,580.595581 1335.861328,576.561401 1335.534668,569.706543 
	C1334.808838,554.475830 1338.068481,539.234314 1334.641357,523.957397 
	C1333.486694,518.810425 1333.009033,514.442627 1327.734497,511.796204 
	C1326.085815,510.968903 1324.840454,508.271057 1324.453735,506.231598 
	C1323.778442,502.670349 1323.735962,498.955963 1323.732300,495.305420 
	C1323.689453,452.327209 1323.718018,409.348907 1323.672363,366.370728 
	C1323.668823,363.075256 1323.694336,359.667938 1322.906006,356.512512 
	C1321.838257,352.238739 1318.573853,349.908661 1314.133423,349.677338 
	C1309.742920,349.448578 1305.752563,351.089264 1304.591309,355.379974 
	C1301.756470,365.853882 1293.030151,371.902557 1286.227783,381.162231 
M611.089905,515.612854 
	C608.677490,509.096039 603.372009,508.245087 597.342041,508.259155 
	C564.010803,508.336914 530.679138,508.326050 497.347870,508.248688 
	C493.575836,508.239929 489.398132,509.301239 485.650543,505.262695 
	C490.594666,502.544617 495.464752,500.519897 499.542267,497.444397 
	C503.728851,494.286682 507.498474,490.388885 510.789185,486.284668 
	C513.926331,482.371979 517.656189,480.745544 522.394531,479.440857 
	C529.018372,477.617004 536.018250,475.309906 541.343201,471.232391 
	C545.241516,468.247284 548.887756,466.738434 553.379517,465.436951 
	C560.875977,463.264862 569.797852,464.087311 575.376465,457.435089 
	C579.448120,452.579865 585.027161,452.160858 590.236816,450.404602 
	C594.570435,448.943634 598.945862,447.605774 603.271973,446.123627 
	C607.611328,444.636963 611.930298,443.086548 616.226624,441.479767 
	C624.168396,438.509613 633.071716,437.812195 639.164368,430.499481 
	C640.628418,428.742249 644.543762,428.509399 647.344055,428.470764 
	C661.340576,428.277588 675.341248,428.389008 689.340454,428.375946 
	C691.671753,428.373779 694.060364,428.594818 696.322205,428.173828 
	C701.127075,427.279510 703.969116,424.229156 704.290161,419.290527 
	C704.603394,414.472992 702.593079,410.803925 697.866333,409.253815 
	C695.722534,408.550751 693.336060,408.343994 691.057800,408.333588 
	C675.059082,408.260498 659.047546,407.946075 643.067932,408.504486 
	C638.002014,408.681519 631.475403,409.771973 628.281311,413.044617 
	C617.267639,424.328918 600.623718,421.549194 588.862671,430.260406 
	C588.642700,430.423340 588.175293,430.209381 587.882751,430.323517 
	C579.137695,433.735413 568.724060,433.351746 562.192871,441.930359 
	C561.254333,443.163055 558.624390,443.057434 556.818359,443.688995 
	C548.440613,446.618713 538.612610,446.266327 531.818726,452.545624 
	C527.150513,456.860260 522.046936,458.797485 516.283936,460.368164 
	C508.205627,462.569855 501.229858,466.239136 495.466217,472.988068 
	C489.810364,479.610840 483.464783,486.344238 473.322968,486.406097 
	C471.186340,486.419128 468.231354,487.422363 467.086090,489.005615 
	C463.883301,493.433319 459.868469,495.175934 454.591827,495.918823 
	C449.444458,496.643555 446.223175,501.205566 446.339752,505.705078 
	C446.452698,510.065125 450.131256,514.495239 454.921021,515.430603 
	C457.833893,515.999451 460.946014,515.576172 463.842590,516.191711 
	C466.227234,516.698486 469.082062,517.488708 470.595154,519.172119 
	C477.461426,526.810791 486.235107,528.427246 495.833008,528.403259 
	C525.831116,528.328369 555.829529,528.375366 585.827820,528.375061 
	C588.771667,528.375061 591.715454,528.375061 594.659302,528.375061 
	C604.681519,537.187561 606.112610,547.788879 603.498718,560.045288 
	C594.465088,561.542053 588.329712,567.521729 582.294678,574.477295 
	C576.501099,581.154541 569.623291,586.142090 558.987671,584.063293 
	C551.311523,582.562988 542.706787,584.751648 537.025879,591.045654 
	C533.151550,595.338135 529.312805,596.103149 523.945190,595.899170 
	C515.556641,595.580261 506.810547,596.917664 500.945526,603.297424 
	C496.923615,607.672302 492.810089,608.345520 487.748138,608.309265 
	C482.416779,608.270996 477.049500,607.977295 471.762573,608.477966 
	C466.431274,608.982849 462.373474,613.719299 462.330688,618.432678 
	C462.285248,623.444702 466.143616,628.069824 471.710602,628.231201 
	C480.345642,628.481506 489.102722,628.638367 497.614655,627.449768 
	C502.586151,626.755615 508.101898,624.344666 511.710327,620.942749 
	C516.102112,616.802246 520.261414,615.866516 525.912109,616.088745 
	C532.756592,616.357849 540.415833,617.098511 545.479126,611.099243 
	C550.783569,604.814331 556.872192,603.443726 564.796997,604.134033 
	C572.617554,604.815247 580.860596,604.570618 587.110168,598.104736 
	C591.019775,594.059692 595.535278,590.506897 598.920410,586.077209 
	C601.745239,582.380615 604.850220,580.609863 609.317261,579.511719 
	C619.049866,577.119263 624.139221,569.990845 624.365906,559.872253 
	C624.455505,555.874512 624.164307,551.858948 624.422852,547.875977 
	C625.054932,538.138306 623.570251,529.395630 615.088562,522.988342 
	C613.419006,521.727051 612.871094,518.981079 611.089905,515.612854 
M782.924011,584.298340 
	C774.593811,584.298828 766.262573,584.213989 757.933777,584.323303 
	C749.169250,584.438293 744.545532,587.907715 744.349426,594.252380 
	C744.149231,600.726135 748.641663,604.181152 757.532715,604.369751 
	C759.198059,604.405090 760.864685,604.376160 762.530762,604.376160 
	C789.187439,604.376221 815.844055,604.376160 842.500732,604.376221 
	C857.161926,604.376221 871.826904,604.555176 886.481445,604.242981 
	C889.913818,604.169922 894.024902,603.323181 896.574951,601.276428 
	C901.844360,597.046997 901.416321,583.782471 896.429565,579.242249 
	C891.514465,574.767334 879.895081,574.802979 876.675659,580.593689 
	C874.504089,584.499634 871.616211,584.280273 868.336182,584.284973 
	C853.341797,584.306458 838.347290,584.326172 823.353149,584.264526 
	C821.166992,584.255554 818.982666,583.803772 816.378784,583.509521 
	C816.378784,574.236694 816.117920,565.601807 816.533203,556.999512 
	C816.662537,554.320862 817.995483,551.119446 819.857605,549.211609 
	C826.064941,542.851868 828.886108,535.544312 828.425049,526.703064 
	C828.130371,521.053894 828.139587,515.362854 828.479248,509.718719 
	C828.627991,507.247009 829.191956,503.942932 830.852356,502.562286 
	C839.901367,495.037750 840.331482,484.866516 840.363586,474.471863 
	C840.405701,460.821228 840.373962,447.170349 840.373962,433.669800 
	C842.620789,431.736359 844.960876,430.316467 846.480225,428.283295 
	C849.097168,424.781464 849.602844,420.390198 846.567200,417.229828 
	C844.296082,414.865509 840.560669,412.664948 837.434509,412.604584 
	C829.024658,412.442200 824.065552,416.711670 821.719788,425.128967 
	C820.757751,428.580780 820.405457,432.294128 820.365295,435.895050 
	C820.212769,449.554901 820.476135,463.221283 820.177551,476.876312 
	C820.102722,480.296021 819.557800,484.692017 817.426880,486.900970 
	C810.119995,494.475647 808.036194,503.394257 808.287354,513.368530 
	C808.404663,518.030518 808.577698,522.720337 808.194580,527.353638 
	C807.993347,529.787231 807.301392,532.766602 805.705017,534.397095 
	C798.762329,541.487976 795.997925,549.857056 796.256714,559.598145 
	C796.473389,567.754089 796.301208,575.920349 796.301208,584.298340 
	C791.531982,584.298340 788.213928,584.298340 782.924011,584.298340 
M769.577759,390.440125 
	C767.810974,400.162140 770.783630,404.229218 780.389038,404.332031 
	C797.338806,404.513519 814.309204,404.836731 831.236389,404.192627 
	C839.693054,403.870789 846.092163,405.961670 852.533752,411.603394 
	C855.787170,414.452820 855.994995,417.654083 857.502625,420.673462 
	C859.570679,424.815491 862.803223,426.451904 867.108093,426.294464 
	C871.566711,426.131348 875.169556,423.824371 875.794128,419.497406 
	C876.542786,414.310150 876.733215,408.793213 875.723572,403.705139 
	C875.210327,401.118683 871.819702,397.750946 869.226318,397.226593 
	C864.614319,396.294098 861.442932,393.693787 858.492065,390.803741 
	C853.334656,385.752594 847.064636,384.370850 840.344604,384.332581 
	C820.734497,384.220856 801.123169,384.326294 781.512512,384.271362 
	C777.004395,384.258728 772.951538,385.040466 769.577759,390.440125 
z"/>
<path fill="#01FF02" opacity="1.000000" stroke="none" 
	d="
M1000.465637,1476.321289 
	C1011.615295,1475.596313 1020.884399,1478.395752 1029.822754,1483.485474 
	C1034.038818,1485.886475 1039.072144,1487.133179 1043.895264,1488.119751 
	C1050.530273,1489.476807 1056.325806,1491.754761 1061.754150,1496.153931 
	C1065.352051,1499.069580 1070.581665,1500.619873 1075.302124,1501.350342 
	C1082.380737,1502.446167 1087.063232,1505.934937 1091.842896,1511.151489 
	C1097.624023,1517.461426 1102.769287,1525.035034 1112.799072,1526.484619 
	C1118.129883,1527.255127 1121.357056,1531.611938 1122.668945,1537.683594 
	C1125.351807,1550.098999 1125.154907,1562.107056 1120.407837,1573.898682 
	C1117.559814,1580.973145 1115.166748,1588.408447 1111.146362,1594.784424 
	C1106.996460,1601.365845 1101.279419,1607.005005 1095.948486,1612.779907 
	C1092.330566,1616.698975 1089.306396,1620.527466 1087.794678,1625.985596 
	C1086.333130,1631.262451 1083.327393,1636.338501 1080.057617,1640.814209 
	C1077.545532,1644.253052 1076.131226,1647.445068 1076.293091,1651.670776 
	C1076.675415,1661.661133 1074.343506,1670.686768 1066.960571,1678.101929 
	C1065.280396,1679.789429 1064.809326,1682.804199 1064.083496,1685.295898 
	C1061.693726,1693.499512 1060.456177,1702.175781 1051.496582,1706.754883 
	C1049.651611,1707.697754 1048.998413,1711.178711 1048.032349,1713.584839 
	C1046.681885,1716.948364 1046.402222,1721.160156 1044.161865,1723.664795 
	C1038.655273,1729.820435 1036.174927,1737.239136 1033.374634,1744.634766 
	C1032.671509,1746.491577 1032.062378,1748.912476 1030.613892,1749.869995 
	C1023.110962,1754.829956 1024.162476,1762.286499 1024.344849,1769.525391 
	C1024.732666,1784.916992 1023.876831,1800.067383 1017.285156,1814.401611 
	C1016.239136,1816.676270 1016.383728,1819.604736 1016.374084,1822.232422 
	C1016.304321,1841.228760 1016.373230,1860.225708 1016.312012,1879.222046 
	C1016.295410,1884.372925 1017.319580,1888.576294 1021.375793,1892.577393 
	C1027.024048,1898.149536 1028.775146,1905.681274 1028.406494,1913.722656 
	C1028.136597,1919.610596 1028.914551,1924.826904 1032.486450,1930.489136 
	C1037.748291,1938.830811 1037.431396,1948.886719 1033.579468,1958.360352 
	C1033.454224,1958.668335 1033.371338,1959.081909 1033.132080,1959.242554 
	C1022.363586,1966.473511 1017.092712,1981.994629 1000.612854,1980.324219 
	C994.680786,1992.508545 984.487732,1997.548096 971.992554,1996.120483 
	C957.932068,1994.514404 945.174072,1998.044556 932.309082,2002.586914 
	C928.961121,2003.769165 925.202209,2004.261841 921.630920,2004.266968 
	C854.642944,2004.363647 787.654785,2004.341797 720.666626,2004.336060 
	C710.752991,2004.335327 701.616943,2002.654663 694.514587,1994.566528 
	C692.962219,1992.798706 689.138916,1992.476562 686.348022,1992.437134 
	C672.020081,1992.234375 657.686890,1992.440674 643.357361,1992.305054 
	C634.172302,1992.218140 625.637634,1990.507568 619.002808,1983.047363 
	C617.383484,1981.226807 613.767090,1980.558350 611.032166,1980.467285 
	C601.710693,1980.157471 592.372437,1980.299072 583.041077,1980.349243 
	C573.245483,1980.401978 564.590759,1978.338379 559.577332,1968.699829 
	C557.663269,1965.019775 554.351807,1964.214722 550.327271,1964.266479 
	C535.998840,1964.450806 521.666138,1964.408936 507.335999,1964.307739 
	C498.125580,1964.242798 489.744171,1962.357788 482.963226,1955.066772 
	C480.915070,1952.864502 476.432922,1952.109985 473.063873,1952.105591 
	C463.120514,1952.092651 454.978851,1949.433472 446.593689,1943.173950 
	C437.240784,1936.192017 430.501862,1928.792236 428.091034,1917.409180 
	C427.707397,1915.597656 425.855438,1914.144165 424.949615,1912.387451 
	C422.406342,1907.454956 420.107300,1902.394897 417.507843,1897.493408 
	C415.709564,1894.102295 413.238556,1891.042480 411.661377,1887.565430 
	C408.965546,1881.622192 405.845215,1875.654907 404.520691,1869.357544 
	C402.603668,1860.243164 398.113190,1854.593994 389.030518,1852.212769 
	C382.170807,1850.414185 380.468140,1847.785522 380.370911,1839.650757 
	C380.211578,1826.321655 380.244415,1812.988525 380.369202,1799.658691 
	C380.414368,1794.832520 379.620270,1791.060303 375.595551,1787.368530 
	C368.724579,1781.065918 368.813049,1771.807861 368.424316,1763.249023 
	C367.986206,1753.604004 368.291016,1743.923584 368.338745,1734.258911 
	C368.358673,1730.227661 368.480774,1726.600098 364.247101,1723.831299 
	C362.168457,1722.472046 360.699127,1718.865112 360.509399,1716.166016 
	C359.772095,1705.676636 360.903351,1695.633789 369.032562,1687.544556 
	C370.879761,1685.706543 371.352600,1682.430176 372.275970,1679.752930 
	C372.584259,1678.859375 372.325165,1677.770142 372.325195,1676.770264 
	C372.325348,1595.118042 372.325470,1513.465820 372.325592,1431.813599 
	C372.325592,1429.828857 372.325623,1427.844116 372.325623,1425.560303 
	C364.861267,1419.653809 356.093323,1420.109619 347.609070,1420.073486 
	C327.286835,1419.986694 306.963196,1420.288086 286.640015,1420.310669 
	C278.421722,1420.319824 271.195892,1417.984253 264.843140,1412.181885 
	C262.238434,1409.802734 257.758636,1409.083862 253.992142,1408.477905 
	C250.089386,1407.849731 245.977371,1408.614014 242.029663,1408.149902 
	C237.170883,1407.578735 234.244781,1404.477661 233.793228,1399.546265 
	C233.351868,1394.725952 235.271500,1390.900146 240.013275,1389.379028 
	C243.119034,1388.382690 246.545441,1387.680542 249.760086,1387.890503 
	C254.865356,1388.223755 258.370575,1386.348511 262.171112,1383.034668 
	C265.486176,1380.144043 270.107452,1378.384521 274.441986,1377.122559 
	C279.915039,1375.529053 283.801025,1377.531494 286.170502,1381.886963 
	C288.690186,1386.518311 288.021210,1389.946411 283.549255,1394.228027 
	C282.407074,1395.321655 280.918182,1396.053223 277.713623,1398.217529 
	C281.859344,1399.222290 284.110962,1400.238281 286.363586,1400.240479 
	C306.353302,1400.260254 326.344635,1399.922241 346.332397,1400.079834 
	C354.556824,1400.144775 362.773712,1401.162842 371.729187,1401.799683 
	C371.934052,1399.440918 372.003387,1396.902100 372.400208,1394.415527 
	C373.398102,1388.162231 377.680542,1384.130737 382.854095,1384.380249 
	C388.375366,1384.646240 392.001617,1388.601074 392.304718,1395.218140 
	C392.545868,1400.482178 392.353333,1405.765869 392.353333,1412.322510 
	C397.239624,1412.322510 401.452087,1412.213623 405.657288,1412.342163 
	C420.259308,1412.787964 434.880402,1413.009033 449.443878,1414.032349 
	C453.016113,1414.283203 456.862823,1416.701416 459.750153,1419.118652 
	C463.527832,1422.280884 467.361206,1424.140747 472.280609,1424.105469 
	C484.602814,1424.017212 496.939880,1424.426147 509.244690,1423.952515 
	C520.299683,1423.526855 530.250305,1425.080811 538.582214,1433.297974 
	C540.591736,1435.279785 544.442932,1436.055542 547.499329,1436.188721 
	C556.148010,1436.565674 564.823853,1436.322388 573.488953,1436.322388 
	C641.143677,1436.322632 708.798340,1436.342041 776.453064,1436.294678 
	C783.770203,1436.289551 791.085938,1435.816040 798.404480,1435.705200 
	C808.607178,1435.550659 818.125916,1437.116333 825.880066,1444.897217 
	C827.925781,1446.949951 831.755432,1448.071167 834.797424,1448.135620 
	C846.778381,1448.389038 858.771790,1447.988647 870.760803,1447.959351 
	C876.409241,1447.945557 882.184387,1447.554932 887.665283,1448.589600 
	C891.704468,1449.352173 896.656250,1451.194580 898.902466,1454.247437 
	C902.945374,1459.741821 907.915466,1460.396973 913.683960,1460.320190 
	C929.001282,1460.116089 944.321411,1459.624146 959.634888,1459.781738 
	C971.693115,1459.905640 983.626465,1460.677124 991.051941,1472.888916 
	C992.328735,1474.988647 996.672058,1475.223755 1000.465637,1476.321289 
z"/>
<path fill="#0000FE" opacity="1.000000" stroke="none" 
	d="
M1416.707520,1489.175781 
	C1424.728394,1495.588379 1425.434692,1500.117920 1420.498169,1509.291626 
	C1418.833862,1512.384888 1417.206055,1515.497681 1415.018311,1519.626343 
	C1418.936646,1519.936890 1421.445312,1520.308228 1423.954224,1520.309448 
	C1490.950684,1520.341187 1557.948730,1520.561035 1624.942017,1520.105225 
	C1635.721069,1520.031982 1646.458618,1516.766602 1657.254150,1515.253784 
	C1665.766724,1514.060791 1674.337158,1512.482544 1682.885010,1512.462769 
	C1770.880005,1512.258667 1858.875488,1512.339478 1946.870850,1512.334229 
	C1954.841553,1512.333740 1962.812988,1512.351318 1970.782593,1512.241943 
	C1977.522827,1512.149536 1983.060181,1514.680420 1987.480103,1519.651123 
	C1990.840332,1523.430298 1994.944458,1524.532104 1999.915527,1524.405273 
	C2010.546387,1524.133789 2021.188721,1524.327148 2031.826416,1524.315186 
	C2038.211426,1524.307983 2042.660522,1527.747070 2047.557251,1531.543701 
	C2054.717285,1537.095215 2060.899658,1543.630371 2067.625488,1549.356812 
	C2076.340820,1556.777466 2079.210449,1565.165405 2079.550049,1575.244141 
	C2079.998535,1588.561646 2079.705566,1601.905884 2079.639404,1615.238159 
	C2079.612549,1620.670410 2080.538818,1624.965088 2084.983643,1629.355957 
	C2090.754883,1635.056763 2091.680420,1643.520142 2091.674561,1651.676758 
	C2091.652832,1682.675049 2091.667236,1713.673462 2091.667969,1744.671753 
	C2091.668457,1764.670654 2091.702637,1784.669800 2091.642334,1804.668457 
	C2091.628906,1809.094727 2092.197266,1812.686401 2095.901367,1816.190186 
	C2101.928223,1821.890991 2103.726318,1829.729492 2103.696533,1838.025391 
	C2103.604004,1864.023682 2103.725830,1890.022705 2103.606934,1916.020874 
	C2103.583008,1921.239868 2104.855469,1925.036255 2108.824219,1929.135498 
	C2114.239502,1934.729004 2119.073486,1941.590576 2121.933838,1948.791504 
	C2126.515381,1960.326172 2120.221191,1968.284668 2107.749756,1968.316895 
	C2074.751709,1968.402222 2041.752930,1968.431885 2008.755005,1968.325317 
	C1987.436768,1968.256592 1966.119263,1967.771606 1944.802002,1967.815918 
	C1941.081421,1967.823608 1935.991089,1968.312256 1933.890625,1970.674683 
	C1926.109863,1979.425415 1916.213257,1980.325195 1905.766235,1980.332520 
	C1882.767456,1980.348633 1859.768311,1980.410522 1836.770020,1980.309082 
	C1822.783569,1980.247437 1808.798218,1979.904175 1794.812134,1979.713379 
	C1790.775513,1979.658325 1786.907349,1979.785400 1784.105103,1983.592896 
	C1778.600586,1991.071777 1770.659302,1992.432129 1761.953247,1992.403687 
	C1722.622437,1992.275513 1683.291016,1992.352417 1643.959717,1992.353882 
	C1611.961426,1992.355103 1579.963013,1992.354980 1547.964722,1992.353638 
	C1536.798706,1992.353149 1526.108887,1991.346802 1517.769775,1982.292114 
	C1516.187622,1980.574219 1512.350586,1980.430054 1509.549683,1980.415649 
	C1483.551636,1980.282471 1457.552368,1980.418823 1431.554688,1980.259399 
	C1426.968018,1980.231079 1422.322388,1979.502563 1417.818848,1978.552734 
	C1410.524292,1977.014160 1407.822388,1970.421387 1403.846924,1964.336304 
	C1391.401978,1964.336304 1378.794556,1964.342773 1366.187134,1964.331665 
	C1362.854736,1964.328857 1359.499390,1964.511597 1356.194458,1964.193481 
	C1346.954468,1963.303833 1343.705444,1959.984497 1343.716919,1950.852905 
	C1343.737061,1934.867676 1344.042725,1918.882202 1344.295044,1902.897949 
	C1344.385986,1897.135254 1343.808472,1892.019165 1338.881348,1887.715820 
	C1333.340454,1882.876587 1331.793457,1875.788940 1331.734375,1868.666626 
	C1331.574097,1849.335693 1331.434570,1829.998047 1331.784668,1810.672119 
	C1331.941650,1802.005249 1333.515869,1793.684082 1340.668091,1787.159912 
	C1342.877808,1785.143921 1343.452515,1780.560669 1343.533936,1777.123535 
	C1343.849121,1763.798340 1343.821899,1750.458984 1343.619873,1737.129517 
	C1343.426025,1724.341553 1346.479248,1713.081299 1355.910278,1703.687622 
	C1358.327148,1701.280396 1359.348145,1696.630981 1359.501221,1692.948975 
	C1359.957520,1681.968628 1359.517212,1670.954468 1359.708008,1659.958374 
	C1359.872681,1650.471313 1361.644287,1641.571655 1368.965088,1634.455322 
	C1370.744995,1632.725098 1371.460083,1629.246216 1371.540649,1626.537964 
	C1371.837769,1616.547119 1371.672485,1606.542480 1371.664307,1596.542969 
	C1371.657227,1587.895020 1373.458374,1580.001221 1380.972656,1574.567383 
	C1385.279541,1571.453003 1384.670898,1566.831055 1384.087036,1562.731079 
	C1382.526245,1551.770142 1385.092407,1542.549805 1392.902832,1534.413696 
	C1395.085571,1532.140015 1396.374146,1527.652100 1395.944458,1524.467163 
	C1394.293945,1512.233276 1400.878296,1502.750000 1405.711914,1492.752686 
	C1407.512451,1489.028564 1411.609009,1487.589355 1416.707520,1489.175781 
z"/>
<path fill="#FFFF00" opacity="1.000000" stroke="none" 
	d="
M1912.143799,660.346863 
	C1934.134766,660.331726 1956.125977,660.280029 1978.116821,660.327332 
	C1983.573853,660.339111 1988.161255,659.715454 1992.321411,654.993469 
	C1997.119751,649.547119 2004.539551,648.449524 2011.607788,648.373962 
	C2029.598389,648.181580 2047.593506,648.195068 2065.584717,648.356934 
	C2074.276123,648.435120 2076.687012,650.473877 2078.680420,658.948853 
	C2079.429932,662.134521 2079.648682,665.508850 2079.650146,668.797363 
	C2079.697266,776.087280 2079.703369,883.377136 2079.662598,990.667053 
	C2079.658691,1000.739807 2078.824463,1010.469788 2070.491211,1018.041443 
	C2068.482666,1019.866394 2067.998291,1023.970886 2067.810547,1027.087158 
	C2067.204346,1037.140869 2066.544189,1046.841064 2058.177490,1054.353149 
	C2055.754150,1056.529053 2055.338135,1060.903320 2053.901367,1064.226318 
	C2052.473877,1067.527832 2051.465088,1071.197144 2049.319824,1073.966919 
	C2042.651611,1082.576172 2035.821289,1091.100098 2028.482300,1099.135132 
	C2023.706299,1104.364136 2017.173340,1106.868530 2010.017456,1107.790771 
	C2006.130493,1108.291870 2001.924316,1108.870972 1998.609863,1110.740601 
	C1991.065796,1114.996338 1983.131836,1116.363892 1974.671631,1116.352417 
	C1930.689453,1116.293091 1886.707275,1116.325684 1842.725098,1116.325806 
	C1752.095093,1116.325806 1661.465088,1116.336182 1570.835083,1116.299805 
	C1565.179932,1116.297607 1559.496582,1116.201538 1553.880859,1115.621582 
	C1550.673218,1115.290283 1546.858154,1114.739990 1544.570557,1112.805542 
	C1538.889648,1108.001099 1532.494995,1108.308960 1525.852905,1108.284790 
	C1497.873901,1108.182861 1469.895386,1107.800903 1441.917236,1107.847168 
	C1437.022949,1107.855347 1431.617432,1108.381592 1427.340942,1110.484375 
	C1417.083618,1115.527954 1406.424561,1116.705322 1395.328125,1116.340454 
	C1392.332642,1116.241821 1389.330933,1116.345703 1386.332275,1116.322144 
	C1375.096680,1116.233765 1374.534302,1115.828979 1370.403687,1104.676270 
	C1362.893555,1103.073975 1355.358398,1101.139282 1349.799438,1094.439209 
	C1348.094604,1092.384399 1343.762817,1092.205811 1340.551880,1091.761719 
	C1331.550903,1090.516968 1327.886353,1087.415894 1327.806396,1078.291504 
	C1327.555420,1049.639893 1327.452271,1020.977661 1328.064087,992.336121 
	C1328.175171,987.137756 1330.721069,980.844849 1334.301270,977.147156 
	C1339.157593,972.131470 1339.712036,966.911560 1339.709106,960.846802 
	C1339.677002,895.539917 1339.780029,830.232788 1339.604736,764.926392 
	C1339.573608,753.331848 1340.067261,742.436279 1349.485840,733.771362 
	C1351.423218,731.988953 1351.517944,727.667358 1351.598877,724.494080 
	C1351.989258,709.182556 1351.920410,693.858154 1352.408325,678.550964 
	C1352.519653,675.058044 1353.365601,671.030090 1355.317627,668.269653 
	C1359.477661,662.386902 1359.958496,656.118347 1359.744751,649.360718 
	C1359.491943,641.371948 1359.577759,633.367371 1359.709229,625.372742 
	C1359.866577,615.799866 1362.821045,612.517639 1372.068726,612.375610 
	C1386.726196,612.150452 1401.398682,612.015991 1416.044312,612.485596 
	C1420.472168,612.627625 1424.831787,614.894897 1430.397705,616.534912 
	C1441.001465,609.374390 1454.214111,612.181213 1467.068970,612.444275 
	C1471.637695,612.537720 1475.287842,614.777405 1476.934204,619.519348 
	C1478.464844,623.928772 1476.835449,627.250916 1473.694824,630.176575 
	C1472.576660,631.218384 1471.462891,632.265076 1469.836426,633.787659 
	C1478.135864,638.149109 1486.268799,635.532471 1495.267822,636.944031 
	C1498.758789,644.389526 1501.755371,650.556030 1510.092896,651.230652 
	C1526.778564,652.580811 1543.588135,655.093262 1559.417969,646.810303 
	C1562.636597,647.303589 1565.855103,648.213013 1569.073975,648.214600 
	C1580.052124,648.219849 1591.032837,647.667480 1602.007812,647.782104 
	C1612.389038,647.890442 1622.628906,648.728271 1630.291504,657.415039 
	C1631.622803,658.924377 1634.340698,659.489380 1636.528198,659.892639 
	C1639.118774,660.370239 1641.828735,660.295959 1644.486938,660.296143 
	C1722.074463,660.301270 1799.661987,660.285889 1878.563965,660.806519 
	C1883.106567,670.405273 1887.081421,678.347107 1898.541748,679.207153 
	C1905.468628,679.726990 1910.467285,677.057617 1911.550293,670.285645 
	C1912.072021,667.024536 1911.965820,663.662964 1912.143799,660.346863 
z"/>
<path fill="#FE0101" opacity="1.000000" stroke="none" 
	d="
M815.959106,639.759766 
	C824.255554,638.414978 831.761841,636.526184 839.283264,636.464233 
	C876.931702,636.153809 914.594910,636.843018 952.229980,636.068909 
	C967.552490,635.753723 972.804626,642.250793 972.523621,656.975525 
	C971.919739,688.617493 972.360535,720.279114 972.315430,751.932495 
	C972.308228,756.961243 973.183411,761.349854 975.704712,766.081360 
	C978.542786,771.407715 980.123413,778.050964 980.149292,784.130249 
	C980.446106,854.099976 980.375244,924.071350 980.304504,994.042175 
	C980.296082,1002.366028 979.765808,1010.622070 973.915466,1017.547363 
	C972.637207,1019.060425 972.415588,1021.810608 972.403625,1023.994934 
	C972.296204,1043.652832 972.195251,1063.313721 972.488831,1082.968018 
	C972.539490,1086.359619 974.483398,1089.715820 975.508545,1093.101685 
	C977.129150,1098.453735 979.362549,1103.724243 980.144958,1109.199463 
	C981.102783,1115.901855 977.342102,1119.653931 970.349121,1120.291138 
	C968.035217,1120.501831 965.687500,1120.350952 963.355286,1120.350952 
	C918.040771,1120.352539 872.726318,1120.363037 827.411804,1120.330688 
	C823.758057,1120.328125 820.097107,1120.124268 816.452637,1119.842773 
	C809.992676,1119.343994 804.339233,1120.129395 799.221924,1125.150635 
	C793.890747,1130.381714 786.910461,1132.560425 779.131714,1132.416992 
	C761.163025,1132.085938 743.167725,1132.620117 725.221741,1131.875732 
	C716.328857,1131.506958 709.674744,1137.359131 701.450317,1138.279907 
	C700.819153,1138.350708 700.230225,1139.006958 699.618347,1139.012329 
	C679.723267,1139.186890 659.824158,1139.543945 639.936218,1139.220581 
	C636.690918,1139.167847 632.591736,1136.819702 630.473694,1134.233276 
	C626.662231,1129.578979 621.751831,1128.438843 616.542297,1127.736206 
	C609.697693,1126.812988 603.890564,1124.429321 599.174072,1119.091919 
	C597.723938,1117.450928 594.713562,1116.583374 592.360413,1116.460693 
	C585.714539,1116.114136 579.038086,1116.272217 572.375183,1116.353271 
	C564.325317,1116.451294 557.294739,1114.285645 552.137146,1107.691772 
	C549.638855,1104.497925 546.388123,1103.630249 542.418884,1103.964600 
	C532.175720,1104.827393 522.920654,1103.215210 515.188110,1095.169922 
	C512.923401,1092.813599 507.811493,1092.523926 503.983917,1092.456421 
	C487.995544,1092.174316 471.999329,1092.346924 456.005981,1092.333496 
	C445.000732,1092.324341 433.979736,1092.804199 426.300049,1082.254150 
	C425.044189,1080.528931 420.864899,1080.450317 418.031281,1080.431519 
	C396.707764,1080.289185 375.382111,1080.441406 354.059113,1080.263916 
	C350.527313,1080.234497 346.800568,1079.562500 343.527435,1078.268188 
	C338.854279,1076.420166 336.341614,1072.546753 336.337494,1067.323853 
	C336.335632,1064.991455 336.327484,1062.659180 336.327454,1060.326782 
	C336.326965,938.710632 336.325012,817.094543 336.337860,695.478394 
	C336.338226,692.151184 336.807220,688.793579 336.483185,685.506775 
	C336.242462,683.065369 335.673767,680.213806 334.189087,678.427917 
	C330.921875,674.497925 329.076416,670.784607 331.845093,665.838684 
	C334.520935,661.058533 338.854584,660.286316 343.740204,660.303589 
	C359.368958,660.358887 374.998047,660.322571 390.626984,660.322205 
	C408.286316,660.321838 425.947205,660.190186 443.604095,660.397644 
	C449.348450,660.465088 453.719208,659.632385 456.560760,653.655701 
	C459.465302,647.546387 465.474335,645.104614 472.023407,644.361023 
	C473.997314,644.136963 476.017822,644.322266 478.016998,644.322266 
	C582.640198,644.322998 687.263489,644.282959 791.886475,644.404114 
	C800.023254,644.413513 807.797058,643.577759 815.959106,639.759766 
z"/>
<path fill="#070707" opacity="1.000000" stroke="none" 
	d="
M1286.669678,380.600647 
	C1293.030151,371.902557 1301.756470,365.853882 1304.591309,355.379974 
	C1305.752563,351.089264 1309.742920,349.448578 1314.133423,349.677338 
	C1318.573853,349.908661 1321.838257,352.238739 1322.906006,356.512512 
	C1323.694336,359.667938 1323.668823,363.075256 1323.672363,366.370728 
	C1323.718018,409.348907 1323.689453,452.327209 1323.732300,495.305420 
	C1323.735962,498.955963 1323.778442,502.670349 1324.453735,506.231598 
	C1324.840454,508.271057 1326.085815,510.968903 1327.734497,511.796204 
	C1333.009033,514.442627 1333.486694,518.810425 1334.641357,523.957397 
	C1338.068481,539.234314 1334.808838,554.475830 1335.534668,569.706543 
	C1335.861328,576.561401 1331.068604,580.595581 1325.078125,580.362671 
	C1319.288696,580.137512 1315.819946,576.586060 1315.707031,569.720764 
	C1315.553833,560.407471 1315.736328,551.076355 1316.154297,541.769958 
	C1316.460815,534.950378 1315.974854,528.906006 1310.633301,523.542542 
	C1306.460693,519.352844 1303.802124,513.919189 1304.163940,507.365051 
	C1304.455933,502.079224 1303.666382,496.743652 1303.654541,491.429474 
	C1303.592407,463.443756 1303.640259,435.457825 1303.605347,407.472046 
	C1303.601074,403.981445 1303.332397,400.491180 1303.098145,394.895721 
	C1297.150269,400.099396 1292.668945,403.663239 1288.600830,407.648712 
	C1278.234131,417.804535 1269.132568,429.652100 1257.503052,438.009521 
	C1244.992065,447.000488 1235.622681,459.009552 1223.682739,468.391937 
	C1218.875610,472.169403 1215.630737,477.901825 1211.527832,482.616638 
	C1205.267090,489.811188 1198.828613,496.851288 1192.582397,504.058136 
	C1191.156006,505.703857 1189.467529,507.647461 1189.155396,509.649719 
	C1186.942627,523.847229 1177.163574,532.741333 1167.177002,541.414612 
	C1157.475464,549.840210 1147.321899,557.747925 1137.683472,566.242249 
	C1133.244873,570.154053 1128.758545,574.452271 1125.818604,579.468811 
	C1123.860229,582.810425 1124.255981,587.725708 1124.193481,591.945496 
	C1124.046143,601.883911 1120.447388,605.242065 1110.785645,603.904907 
	C1097.862427,602.116333 1092.405640,595.842896 1092.304932,582.598206 
	C1092.264526,577.267883 1092.101685,571.928162 1092.340942,566.608337 
	C1092.724976,558.065857 1091.592407,550.820312 1084.654907,544.118896 
	C1081.113525,540.697937 1080.771973,533.119446 1080.523682,527.353882 
	C1080.232422,520.591553 1079.913696,514.957642 1074.090942,509.830322 
	C1068.385742,504.806580 1068.469482,496.640320 1068.364380,489.365601 
	C1068.143188,474.043213 1068.297119,458.715424 1068.297119,443.389832 
	C1068.297119,440.092987 1068.297241,436.796143 1068.297241,432.939087 
	C1057.586914,432.939087 1047.528931,432.939087 1036.375122,432.939087 
	C1036.375122,436.990784 1036.375122,440.561646 1036.375122,444.132477 
	C1036.375244,488.776550 1036.331787,533.420715 1036.423706,578.064575 
	C1036.437134,584.548828 1036.478271,590.683044 1030.283203,594.967773 
	C1029.006958,595.850403 1028.858032,598.414856 1028.269409,600.230042 
	C1026.385498,606.039856 1022.599670,608.894897 1017.427185,608.352600 
	C1012.344849,607.819763 1008.229065,603.997925 1008.524780,598.198669 
	C1008.786072,593.073059 1009.592651,587.041931 1012.523499,583.228027 
	C1015.984436,578.724487 1016.317749,574.458252 1016.315552,569.532349 
	C1016.296143,525.554565 1016.304260,481.576843 1016.304565,437.599091 
	C1016.304565,435.266937 1016.159912,432.923676 1016.334717,430.604553 
	C1017.178528,419.407715 1024.383789,412.509735 1035.696289,412.337952 
	C1046.688232,412.170990 1057.685547,412.210419 1068.678833,412.320038 
	C1080.791260,412.440796 1088.246948,419.991180 1088.346802,432.418213 
	C1088.483398,449.408508 1088.474976,466.401520 1088.334839,483.391754 
	C1088.276611,490.455963 1088.362061,496.648834 1094.769531,502.122833 
	C1099.747559,506.375641 1100.921021,513.766357 1100.341553,520.660156 
	C1099.766602,527.499084 1100.483521,533.554321 1106.201782,538.558044 
	C1108.448486,540.523987 1109.446045,544.227661 1110.359497,547.332092 
	C1111.637695,551.675598 1112.304810,556.198975 1113.423340,561.555359 
	C1118.503052,556.939270 1122.929321,552.809692 1127.472534,548.813110 
	C1134.632446,542.514648 1141.948242,536.391724 1149.051514,530.030762 
	C1154.630981,525.034363 1160.459351,520.187439 1165.257080,514.498230 
	C1167.868042,511.402008 1169.124878,506.806641 1169.988525,502.677429 
	C1171.295166,496.429657 1174.741089,492.258606 1179.472046,488.158661 
	C1185.108643,483.273834 1189.809814,477.273010 1194.688965,471.561584 
	C1199.394531,466.053467 1203.499512,460.006744 1208.439575,454.731598 
	C1213.580811,449.241791 1219.318359,444.294067 1224.948975,439.282196 
	C1238.940063,426.828613 1253.236572,414.708557 1266.970703,401.980164 
	C1273.883545,395.573639 1279.839233,388.134430 1286.669678,380.600647 
z"/>
<path fill="#070707" opacity="1.000000" stroke="none" 
	d="
M1911.945557,659.463013 
	C1911.965820,663.662964 1912.072021,667.024536 1911.550293,670.285645 
	C1910.467285,677.057617 1905.468628,679.726990 1898.541748,679.207153 
	C1887.081421,678.347107 1883.106567,670.405273 1879.581543,660.777588 
	C1879.395386,635.564453 1879.647583,610.911926 1879.450928,586.263000 
	C1879.424194,582.913513 1877.892578,578.986389 1875.777832,576.355591 
	C1869.803223,568.922729 1867.692139,560.494324 1867.643188,551.310120 
	C1867.573730,538.314392 1867.549561,525.317322 1867.664429,512.322205 
	C1867.706909,507.507812 1867.023071,503.567413 1863.056763,499.864075 
	C1857.541260,494.714172 1855.412842,487.712036 1855.561157,479.961517 
	C1855.795898,467.693878 1855.623535,455.418488 1855.623535,441.588257 
	C1852.461182,443.032928 1849.289185,443.567047 1849.029663,444.743530 
	C1846.667236,455.454773 1840.081543,463.636993 1833.860718,472.177704 
	C1827.077026,481.491180 1823.989258,492.368469 1822.364990,503.651794 
	C1821.680176,508.409515 1820.039429,512.362305 1816.370972,515.807678 
	C1814.162354,517.882324 1813.261108,521.341858 1811.748291,524.165955 
	C1808.663208,529.925049 1805.554565,535.671509 1802.470947,541.431396 
	C1801.535767,543.178284 1800.359619,544.864319 1799.795898,546.729919 
	C1797.619507,553.930847 1796.793945,561.323730 1789.587280,566.520447 
	C1786.824585,568.512573 1787.364014,575.070435 1786.376221,579.542847 
	C1785.813721,582.090271 1785.953003,585.230042 1784.479614,587.057617 
	C1779.900757,592.736877 1779.704102,599.226868 1779.704102,605.902405 
	C1779.704102,613.566772 1779.888550,621.237732 1779.632935,628.893738 
	C1779.377563,636.544678 1775.235718,640.703918 1768.859497,640.324280 
	C1762.750244,639.960571 1759.788086,636.340149 1759.657104,628.491089 
	C1759.506836,619.496338 1759.344849,610.485474 1759.715698,601.503418 
	C1760.013306,594.291870 1759.875366,586.953125 1764.654907,580.546997 
	C1766.510498,578.059875 1767.168213,574.413696 1767.611816,571.190796 
	C1768.720337,563.135193 1770.794189,555.700317 1776.896240,549.771790 
	C1778.401855,548.309021 1778.859253,545.759583 1779.775757,543.699524 
	C1782.561401,537.439331 1783.310181,530.134155 1789.498291,525.609253 
	C1790.677490,524.747070 1791.379639,522.798950 1791.673584,521.233826 
	C1793.041748,513.949829 1795.507080,507.404755 1801.154419,502.127686 
	C1802.845093,500.547821 1803.348755,497.413177 1803.842163,494.882751 
	C1807.071167,478.322845 1813.997192,463.588776 1824.663208,450.480133 
	C1826.877075,447.759125 1828.662964,444.074127 1829.079468,440.643219 
	C1829.799927,434.708160 1833.056030,430.542389 1837.487793,427.789856 
	C1842.284180,424.810883 1843.786377,420.446808 1845.565186,415.783417 
	C1846.955566,412.138580 1848.783813,408.646606 1850.601685,405.183350 
	C1852.227539,402.086121 1854.408203,399.253540 1855.800293,396.066681 
	C1857.879883,391.305664 1861.973999,387.993530 1866.195068,388.353210 
	C1870.991699,388.761993 1874.953735,392.847321 1875.626709,398.392303 
	C1875.905762,400.692230 1875.699219,403.052063 1875.699463,405.384674 
	C1875.702393,429.377533 1875.716431,453.370392 1875.690308,477.363251 
	C1875.685913,481.389709 1876.110229,484.625366 1879.539062,487.965302 
	C1885.060303,493.343292 1887.758911,500.592743 1887.720703,508.609070 
	C1887.655640,522.271362 1887.793457,535.935059 1887.660645,549.596375 
	C1887.604126,555.423401 1888.369263,560.642883 1892.784912,565.108765 
	C1898.837158,571.229980 1899.358887,579.448059 1899.616211,587.403687 
	C1899.960938,598.056152 1899.666138,608.728210 1899.745850,619.391174 
	C1899.762207,621.585266 1900.218262,623.776123 1900.471680,625.968445 
	C1901.127441,625.995789 1901.783325,626.023132 1902.439087,626.050537 
	C1902.833862,622.677429 1903.713623,619.277771 1903.530762,615.936279 
	C1903.017822,606.561584 1904.749756,598.311768 1911.992920,591.502808 
	C1914.151978,589.473206 1914.936646,585.771484 1915.870239,582.690247 
	C1918.145386,575.182373 1918.607544,567.027039 1925.520264,561.439026 
	C1927.264526,560.029053 1927.586670,556.697937 1928.271606,554.170837 
	C1930.045776,547.625916 1932.400146,541.530884 1938.967896,538.233215 
	C1943.711426,535.851501 1943.805420,531.456543 1943.591064,527.099243 
	C1943.110229,517.322510 1946.986084,509.851379 1952.706909,501.776947 
	C1958.751221,493.245819 1960.864502,482.098419 1967.166260,473.056580 
	C1969.366455,469.899597 1967.672119,463.968475 1967.606323,459.306366 
	C1967.508545,452.372742 1969.203857,446.298157 1974.644897,441.471405 
	C1978.576050,437.984161 1979.971924,433.476074 1979.743286,428.042755 
	C1979.360474,418.946899 1980.689575,410.376648 1987.989014,403.471771 
	C1990.265869,401.318146 1991.173706,397.031647 1991.466675,393.615173 
	C1992.005493,387.329742 1991.053955,380.898468 1991.787720,374.652954 
	C1992.511108,368.496155 1993.915771,362.243011 1996.184326,356.490723 
	C1998.759033,349.962494 2005.532959,347.420868 2012.643188,349.030090 
	C2021.287354,350.986481 2023.467041,353.703339 2023.699341,362.810455 
	C2024.007568,374.893799 2023.140991,376.240173 2012.440552,380.512634 
	C2011.704102,388.500122 2011.476562,396.490997 2010.038208,404.257538 
	C2009.311035,408.183441 2006.872925,412.081146 2004.335938,415.305115 
	C2001.581299,418.806000 1999.462158,421.976074 1999.602905,426.753418 
	C1999.910645,437.204163 1998.863525,447.221893 1989.708252,454.629547 
	C1987.972290,456.034119 1988.138916,459.986694 1987.739868,462.807770 
	C1986.773315,469.641815 1987.989502,477.735046 1984.692505,483.078857 
	C1978.936157,492.408386 1975.575317,502.624725 1970.637817,512.181091 
	C1969.897583,513.613831 1969.074341,515.368347 1967.792114,516.089905 
	C1963.443359,518.536865 1963.886597,522.487183 1963.623047,526.515808 
	C1963.300049,531.452393 1962.849731,536.482849 1961.536133,541.218018 
	C1960.597168,544.602661 1958.902344,549.129639 1956.227051,550.424438 
	C1948.535278,554.147400 1947.532593,561.429565 1944.798340,567.923035 
	C1944.282959,569.147034 1943.891724,570.566040 1943.008179,571.469482 
	C1936.616943,578.003723 1935.502930,586.505676 1933.574097,594.860474 
	C1932.818726,598.131836 1930.438599,601.418091 1927.941406,603.798889 
	C1924.781128,606.811951 1923.384277,609.871338 1923.639526,614.208130 
	C1924.263794,624.813416 1922.272583,634.486328 1914.083740,642.341064 
	C1909.432495,646.802551 1912.397827,653.121948 1911.945557,659.463013 
z"/>
<path fill="#070707" opacity="1.000000" stroke="none" 
	d="
M611.447876,516.266357 
	C612.871094,518.981079 613.419006,521.727051 615.088562,522.988342 
	C623.570251,529.395630 625.054932,538.138306 624.422852,547.875977 
	C624.164307,551.858948 624.455505,555.874512 624.365906,559.872253 
	C624.139221,569.990845 619.049866,577.119263 609.317261,579.511719 
	C604.850220,580.609863 601.745239,582.380615 598.920410,586.077209 
	C595.535278,590.506897 591.019775,594.059692 587.110168,598.104736 
	C580.860596,604.570618 572.617554,604.815247 564.796997,604.134033 
	C556.872192,603.443726 550.783569,604.814331 545.479126,611.099243 
	C540.415833,617.098511 532.756592,616.357849 525.912109,616.088745 
	C520.261414,615.866516 516.102112,616.802246 511.710327,620.942749 
	C508.101898,624.344666 502.586151,626.755615 497.614655,627.449768 
	C489.102722,628.638367 480.345642,628.481506 471.710602,628.231201 
	C466.143616,628.069824 462.285248,623.444702 462.330688,618.432678 
	C462.373474,613.719299 466.431274,608.982849 471.762573,608.477966 
	C477.049500,607.977295 482.416779,608.270996 487.748138,608.309265 
	C492.810089,608.345520 496.923615,607.672302 500.945526,603.297424 
	C506.810547,596.917664 515.556641,595.580261 523.945190,595.899170 
	C529.312805,596.103149 533.151550,595.338135 537.025879,591.045654 
	C542.706787,584.751648 551.311523,582.562988 558.987671,584.063293 
	C569.623291,586.142090 576.501099,581.154541 582.294678,574.477295 
	C588.329712,567.521729 594.465088,561.542053 603.498718,560.045288 
	C606.112610,547.788879 604.681519,537.187561 594.659302,528.375061 
	C591.715454,528.375061 588.771667,528.375061 585.827820,528.375061 
	C555.829529,528.375366 525.831116,528.328369 495.833008,528.403259 
	C486.235107,528.427246 477.461426,526.810791 470.595154,519.172119 
	C469.082062,517.488708 466.227234,516.698486 463.842590,516.191711 
	C460.946014,515.576172 457.833893,515.999451 454.921021,515.430603 
	C450.131256,514.495239 446.452698,510.065125 446.339752,505.705078 
	C446.223175,501.205566 449.444458,496.643555 454.591827,495.918823 
	C459.868469,495.175934 463.883301,493.433319 467.086090,489.005615 
	C468.231354,487.422363 471.186340,486.419128 473.322968,486.406097 
	C483.464783,486.344238 489.810364,479.610840 495.466217,472.988068 
	C501.229858,466.239136 508.205627,462.569855 516.283936,460.368164 
	C522.046936,458.797485 527.150513,456.860260 531.818726,452.545624 
	C538.612610,446.266327 548.440613,446.618713 556.818359,443.688995 
	C558.624390,443.057434 561.254333,443.163055 562.192871,441.930359 
	C568.724060,433.351746 579.137695,433.735413 587.882751,430.323517 
	C588.175293,430.209381 588.642700,430.423340 588.862671,430.260406 
	C600.623718,421.549194 617.267639,424.328918 628.281311,413.044617 
	C631.475403,409.771973 638.002014,408.681519 643.067932,408.504486 
	C659.047546,407.946075 675.059082,408.260498 691.057800,408.333588 
	C693.336060,408.343994 695.722534,408.550751 697.866333,409.253815 
	C702.593079,410.803925 704.603394,414.472992 704.290161,419.290527 
	C703.969116,424.229156 701.127075,427.279510 696.322205,428.173828 
	C694.060364,428.594818 691.671753,428.373779 689.340454,428.375946 
	C675.341248,428.389008 661.340576,428.277588 647.344055,428.470764 
	C644.543762,428.509399 640.628418,428.742249 639.164368,430.499481 
	C633.071716,437.812195 624.168396,438.509613 616.226624,441.479767 
	C611.930298,443.086548 607.611328,444.636963 603.271973,446.123627 
	C598.945862,447.605774 594.570435,448.943634 590.236816,450.404602 
	C585.027161,452.160858 579.448120,452.579865 575.376465,457.435089 
	C569.797852,464.087311 560.875977,463.264862 553.379517,465.436951 
	C548.887756,466.738434 545.241516,468.247284 541.343201,471.232391 
	C536.018250,475.309906 529.018372,477.617004 522.394531,479.440857 
	C517.656189,480.745544 513.926331,482.371979 510.789185,486.284668 
	C507.498474,490.388885 503.728851,494.286682 499.542267,497.444397 
	C495.464752,500.519897 490.594666,502.544617 485.650543,505.262695 
	C489.398132,509.301239 493.575836,508.239929 497.347870,508.248688 
	C530.679138,508.326050 564.010803,508.336914 597.342041,508.259155 
	C603.372009,508.245087 608.677490,509.096039 611.447876,516.266357 
z"/>
<path fill="#070707" opacity="1.000000" stroke="none" 
	d="
M1560.034912,646.355103 
	C1543.588135,655.093262 1526.778564,652.580811 1510.092896,651.230652 
	C1501.755371,650.556030 1498.758789,644.389526 1496.175415,636.953003 
	C1495.772827,593.362000 1495.687988,550.386719 1495.644287,507.411438 
	C1495.636230,499.466492 1498.209595,492.819855 1504.021362,486.910065 
	C1507.013428,483.867584 1508.456055,478.885040 1509.565918,474.516754 
	C1510.853760,469.448364 1512.711304,465.188751 1517.191040,462.213104 
	C1518.491211,461.349426 1519.693237,459.951172 1520.321167,458.525299 
	C1524.332031,449.417633 1531.206787,444.774200 1541.133545,444.137024 
	C1543.258789,444.000641 1545.462280,442.654938 1547.330078,441.414917 
	C1551.987915,438.322418 1556.889893,435.415161 1560.938232,431.626099 
	C1568.490601,424.557312 1577.791504,424.815979 1586.979004,424.339172 
	C1591.631836,424.097717 1596.326294,424.042328 1600.968994,424.368866 
	C1607.183838,424.805969 1611.432617,428.934265 1611.650146,434.159607 
	C1611.893433,440.003601 1607.752075,443.871552 1600.553345,444.347992 
	C1597.967285,444.519165 1595.360474,444.375458 1592.356323,444.375458 
	C1591.192017,453.064545 1590.927246,460.184265 1597.562622,466.930817 
	C1601.100220,470.527527 1602.201294,476.853973 1603.534302,482.166107 
	C1604.399780,485.615112 1603.846069,489.464020 1603.666870,493.121002 
	C1603.409424,498.376404 1604.091309,502.417969 1609.689331,505.406830 
	C1613.745483,507.572510 1616.269165,512.443298 1621.627930,513.136658 
	C1622.693848,513.274658 1624.060669,514.604736 1624.477905,515.695435 
	C1628.739258,526.830505 1636.949829,536.485718 1635.855957,549.642212 
	C1635.057861,559.240295 1635.665283,568.958313 1635.710449,578.622559 
	C1635.759521,589.095947 1634.668091,599.125916 1626.084595,606.663574 
	C1625.174194,607.463013 1624.542725,608.896423 1624.334473,610.129089 
	C1622.712158,619.735474 1616.970581,626.611084 1610.757446,633.807007 
	C1604.458740,641.101990 1597.202759,644.081177 1588.255371,644.323303 
	C1580.958618,644.520752 1573.648071,644.174744 1566.348755,644.323975 
	C1564.439819,644.362976 1562.550171,645.348877 1560.034912,646.355103 
M1603.239014,611.699158 
	C1605.375000,605.164734 1605.480835,597.682556 1611.119141,592.740051 
	C1615.077148,589.270630 1615.766724,585.065369 1615.687744,580.221191 
	C1615.530518,570.568359 1615.568359,560.910339 1615.661865,551.255859 
	C1615.766113,540.497070 1610.341675,532.883484 1602.398682,526.335449 
	C1597.388184,522.204834 1592.375366,517.851562 1588.345215,512.812988 
	C1583.064209,506.210724 1583.330200,497.921967 1583.647461,489.883301 
	C1583.858154,484.542725 1582.988281,480.136902 1579.242188,475.421112 
	C1575.351562,470.523407 1573.898315,463.597961 1571.799561,457.416595 
	C1571.031982,455.156158 1571.471313,452.485931 1571.314331,448.985107 
	C1568.409424,450.493561 1566.345459,451.001495 1565.113770,452.299194 
	C1558.734009,459.021515 1551.316406,463.517181 1541.917236,464.466919 
	C1540.773926,464.582458 1539.227905,465.481354 1538.729126,466.457092 
	C1534.581787,474.570770 1526.145630,480.235474 1525.600220,490.531464 
	C1525.447144,493.422913 1523.236206,496.922424 1520.897339,498.826263 
	C1516.528442,502.382446 1515.580200,506.498749 1515.603271,511.782745 
	C1515.767578,549.404968 1515.678467,587.028137 1515.718994,624.651062 
	C1515.721802,627.158569 1516.127441,629.665771 1516.319336,631.870728 
	C1524.814575,631.870728 1532.460205,632.034241 1540.091919,631.778076 
	C1542.607422,631.693542 1545.332397,630.975525 1547.539917,629.773132 
	C1556.891724,624.679077 1566.953735,622.613586 1577.290161,624.074280 
	C1587.012695,625.448181 1594.788696,623.432739 1600.722778,615.449585 
	C1601.315796,614.651733 1601.838379,613.801575 1603.239014,611.699158 
z"/>
<path fill="#070707" opacity="1.000000" stroke="none" 
	d="
M783.909912,584.298340 
	C788.213928,584.298340 791.531982,584.298340 796.301208,584.298340 
	C796.301208,575.920349 796.473389,567.754089 796.256714,559.598145 
	C795.997925,549.857056 798.762329,541.487976 805.705017,534.397095 
	C807.301392,532.766602 807.993347,529.787231 808.194580,527.353638 
	C808.577698,522.720337 808.404663,518.030518 808.287354,513.368530 
	C808.036194,503.394257 810.119995,494.475647 817.426880,486.900970 
	C819.557800,484.692017 820.102722,480.296021 820.177551,476.876312 
	C820.476135,463.221283 820.212769,449.554901 820.365295,435.895050 
	C820.405457,432.294128 820.757751,428.580780 821.719788,425.128967 
	C824.065552,416.711670 829.024658,412.442200 837.434509,412.604584 
	C840.560669,412.664948 844.296082,414.865509 846.567200,417.229828 
	C849.602844,420.390198 849.097168,424.781464 846.480225,428.283295 
	C844.960876,430.316467 842.620789,431.736359 840.373962,433.669800 
	C840.373962,447.170349 840.405701,460.821228 840.363586,474.471863 
	C840.331482,484.866516 839.901367,495.037750 830.852356,502.562286 
	C829.191956,503.942932 828.627991,507.247009 828.479248,509.718719 
	C828.139587,515.362854 828.130371,521.053894 828.425049,526.703064 
	C828.886108,535.544312 826.064941,542.851868 819.857605,549.211609 
	C817.995483,551.119446 816.662537,554.320862 816.533203,556.999512 
	C816.117920,565.601807 816.378784,574.236694 816.378784,583.509521 
	C818.982666,583.803772 821.166992,584.255554 823.353149,584.264526 
	C838.347290,584.326172 853.341797,584.306458 868.336182,584.284973 
	C871.616211,584.280273 874.504089,584.499634 876.675659,580.593689 
	C879.895081,574.802979 891.514465,574.767334 896.429565,579.242249 
	C901.416321,583.782471 901.844360,597.046997 896.574951,601.276428 
	C894.024902,603.323181 889.913818,604.169922 886.481445,604.242981 
	C871.826904,604.555176 857.161926,604.376221 842.500732,604.376221 
	C815.844055,604.376160 789.187439,604.376221 762.530762,604.376160 
	C760.864685,604.376160 759.198059,604.405090 757.532715,604.369751 
	C748.641663,604.181152 744.149231,600.726135 744.349426,594.252380 
	C744.545532,587.907715 749.169250,584.438293 757.933777,584.323303 
	C766.262573,584.213989 774.593811,584.298828 783.909912,584.298340 
z"/>
<path fill="#080808" opacity="1.000000" stroke="none" 
	d="
M769.869141,389.722046 
	C772.951538,385.040466 777.004395,384.258728 781.512512,384.271362 
	C801.123169,384.326294 820.734497,384.220856 840.344604,384.332581 
	C847.064636,384.370850 853.334656,385.752594 858.492065,390.803741 
	C861.442932,393.693787 864.614319,396.294098 869.226318,397.226593 
	C871.819702,397.750946 875.210327,401.118683 875.723572,403.705139 
	C876.733215,408.793213 876.542786,414.310150 875.794128,419.497406 
	C875.169556,423.824371 871.566711,426.131348 867.108093,426.294464 
	C862.803223,426.451904 859.570679,424.815491 857.502625,420.673462 
	C855.994995,417.654083 855.787170,414.452820 852.533752,411.603394 
	C846.092163,405.961670 839.693054,403.870789 831.236389,404.192627 
	C814.309204,404.836731 797.338806,404.513519 780.389038,404.332031 
	C770.783630,404.229218 767.810974,400.162140 769.869141,389.722046 
z"/>
<path fill="#FDFDFD" opacity="1.000000" stroke="none" 
	d="
M1602.816406,612.337402 
	C1601.838379,613.801575 1601.315796,614.651733 1600.722778,615.449585 
	C1594.788696,623.432739 1587.012695,625.448181 1577.290161,624.074280 
	C1566.953735,622.613586 1556.891724,624.679077 1547.539917,629.773132 
	C1545.332397,630.975525 1542.607422,631.693542 1540.091919,631.778076 
	C1532.460205,632.034241 1524.814575,631.870728 1516.319336,631.870728 
	C1516.127441,629.665771 1515.721802,627.158569 1515.718994,624.651062 
	C1515.678467,587.028137 1515.767578,549.404968 1515.603271,511.782745 
	C1515.580200,506.498749 1516.528442,502.382446 1520.897339,498.826263 
	C1523.236206,496.922424 1525.447144,493.422913 1525.600220,490.531464 
	C1526.145630,480.235474 1534.581787,474.570770 1538.729126,466.457092 
	C1539.227905,465.481354 1540.773926,464.582458 1541.917236,464.466919 
	C1551.316406,463.517181 1558.734009,459.021515 1565.113770,452.299194 
	C1566.345459,451.001495 1568.409424,450.493561 1571.314331,448.985107 
	C1571.471313,452.485931 1571.031982,455.156158 1571.799561,457.416595 
	C1573.898315,463.597961 1575.351562,470.523407 1579.242188,475.421112 
	C1582.988281,480.136902 1583.858154,484.542725 1583.647461,489.883301 
	C1583.330200,497.921967 1583.064209,506.210724 1588.345215,512.812988 
	C1592.375366,517.851562 1597.388184,522.204834 1602.398682,526.335449 
	C1610.341675,532.883484 1615.766113,540.497070 1615.661865,551.255859 
	C1615.568359,560.910339 1615.530518,570.568359 1615.687744,580.221191 
	C1615.766724,585.065369 1615.077148,589.270630 1611.119141,592.740051 
	C1605.480835,597.682556 1605.375000,605.164734 1602.816406,612.337402 
z"/>
</svg>
